<?xml version="1.0" encoding="UTF-8" standalone="no"?>
<!-- Created with Inkscape (http://www.inkscape.org/) -->

<svg
   version="1.1"
   id="svg2"
   xml:space="preserve"
   width="1000"
   height="666.66669"
   viewBox="0 0 1000 666.66669"
   sodipodi:docname="5949651_3081623.ai"
   xmlns:inkscape="http://www.inkscape.org/namespaces/inkscape"
   xmlns:sodipodi="http://sodipodi.sourceforge.net/DTD/sodipodi-0.dtd"
   xmlns="http://www.w3.org/2000/svg"
   xmlns:svg="http://www.w3.org/2000/svg"><defs
     id="defs6"><clipPath
       clipPathUnits="userSpaceOnUse"
       id="clipPath18"><path
         d="M 0,500 H 750 V 0 H 0 Z"
         id="path16" /></clipPath><clipPath
       clipPathUnits="userSpaceOnUse"
       id="clipPath362"><path
         d="m 525.209,320.289 h 71.89 v -17.092 h -71.89 z"
         id="path360" /></clipPath><clipPath
       clipPathUnits="userSpaceOnUse"
       id="clipPath378"><path
         d="m 525.209,258.546 h 41.375 v -48.052 h -41.375 z"
         id="path376" /></clipPath><clipPath
       clipPathUnits="userSpaceOnUse"
       id="clipPath508"><path
         d="m 141.461,135.796 h 108.097 v -8.555 H 141.461 Z"
         id="path506" /></clipPath><clipPath
       clipPathUnits="userSpaceOnUse"
       id="clipPath556"><path
         d="M 287.543,331.235 H 462.457 V 212.114 H 287.543 Z"
         id="path554" /></clipPath></defs><sodipodi:namedview
     id="namedview4"
     pagecolor="#ffffff"
     bordercolor="#666666"
     borderopacity="1.0"
     inkscape:pageshadow="2"
     inkscape:pageopacity="0.0"
     inkscape:pagecheckerboard="0" /><g
     id="g8"
     inkscape:groupmode="layer"
     inkscape:label="5949651_3081623"
     transform="matrix(1.3333333,0,0,-1.3333333,0,666.66667)"><path
       d="M 0,0 H 750 V 500 H 0 Z"
       style="fill:#ffffff;fill-opacity:1;fill-rule:nonzero;stroke:none"
       id="path10" /><g
       id="g12"><g
         id="g14"
         clip-path="url(#clipPath18)"><g
           id="g20"
           transform="translate(112.8003,100.5693)"><path
             d="M 0,0 C -0.807,0.197 -1.613,0.405 -2.42,0.626"
             style="fill:none;stroke:#a9c6ea;stroke-width:1;stroke-linecap:butt;stroke-linejoin:miter;stroke-miterlimit:10;stroke-dasharray:none;stroke-opacity:1"
             id="path22" /></g><g
           id="g24"
           transform="translate(107.0249,102.1768)"><path
             d="m 0,0 c -15.054,4.706 -29.623,13.339 -39.698,25.309 -35.489,42.162 6.098,96.202 47.476,113.217 20.178,8.299 38.364,18.214 44.295,41.222 5.674,22.01 -9.863,45.014 -13.872,66.015 -8.073,42.283 29.95,74.989 70.064,74.994 36.975,0.004 53.619,-14.09 90.307,-38.669 27.733,-18.58 79.809,-29.474 119.816,-25.547 47.647,4.677 65.612,25.547 103.588,42.536 26.136,11.692 62.569,14.193 87.02,-3.137 26.116,-18.512 16.192,-54.762 19.165,-81.83 0.747,-6.807 2.519,-13.46 5.913,-19.447 21.397,-37.759 65.227,-39.701 65.227,-95.613 0,-40.34 -64.365,-56.323 -99.121,-61.575"
             style="fill:none;stroke:#a9c6ea;stroke-width:1;stroke-linecap:butt;stroke-linejoin:miter;stroke-miterlimit:10;stroke-dasharray:4.995, 3.497;stroke-dashoffset:0;stroke-opacity:1"
             id="path26" /></g><g
           id="g28"
           transform="translate(605.4736,139.3955)"><path
             d="M 0,0 C -0.844,-0.123 -1.669,-0.239 -2.472,-0.349"
             style="fill:none;stroke:#a9c6ea;stroke-width:1;stroke-linecap:butt;stroke-linejoin:miter;stroke-miterlimit:10;stroke-dasharray:none;stroke-opacity:1"
             id="path30" /></g><g
           id="g32"
           transform="translate(102.8022,311.311)"><path
             d="M 0,0 H 14.263"
             style="fill:none;stroke:#a9c6ea;stroke-width:1;stroke-linecap:butt;stroke-linejoin:miter;stroke-miterlimit:10;stroke-dasharray:none;stroke-opacity:1"
             id="path34" /></g><g
           id="g36"
           transform="translate(117.0649,303.3774)"><path
             d="M 0,0 H 14.263"
             style="fill:none;stroke:#a9c6ea;stroke-width:1;stroke-linecap:butt;stroke-linejoin:miter;stroke-miterlimit:10;stroke-dasharray:none;stroke-opacity:1"
             id="path38" /></g><g
           id="g40"
           transform="translate(538.0557,373.6182)"><path
             d="M 0,0 H 14.263"
             style="fill:none;stroke:#a9c6ea;stroke-width:1;stroke-linecap:butt;stroke-linejoin:miter;stroke-miterlimit:10;stroke-dasharray:none;stroke-opacity:1"
             id="path42" /></g><g
           id="g44"
           transform="translate(529.0029,365.6846)"><path
             d="M 0,0 H 14.263"
             style="fill:none;stroke:#a9c6ea;stroke-width:1;stroke-linecap:butt;stroke-linejoin:miter;stroke-miterlimit:10;stroke-dasharray:none;stroke-opacity:1"
             id="path46" /></g><g
           id="g48"
           transform="translate(550.7383,369.4692)"><path
             d="M 0,0 H 19.383"
             style="fill:none;stroke:#a9c6ea;stroke-width:1;stroke-linecap:butt;stroke-linejoin:miter;stroke-miterlimit:10;stroke-dasharray:none;stroke-opacity:1"
             id="path50" /></g><g
           id="g52"
           transform="translate(675.125,204.5488)"><path
             d="M 0,0 H 10.263"
             style="fill:none;stroke:#a9c6ea;stroke-width:1;stroke-linecap:butt;stroke-linejoin:miter;stroke-miterlimit:10;stroke-dasharray:none;stroke-opacity:1"
             id="path54" /></g><g
           id="g56"
           transform="translate(665.8193,212.3916)"><path
             d="M 0,0 H 14.263"
             style="fill:none;stroke:#a9c6ea;stroke-width:1;stroke-linecap:butt;stroke-linejoin:miter;stroke-miterlimit:10;stroke-dasharray:none;stroke-opacity:1"
             id="path58" /></g><g
           id="g60"
           transform="translate(203.5366,412.1226)"><path
             d="M 0,0 H 14.263"
             style="fill:none;stroke:#a9c6ea;stroke-width:1;stroke-linecap:butt;stroke-linejoin:miter;stroke-miterlimit:10;stroke-dasharray:none;stroke-opacity:1"
             id="path62" /></g><g
           id="g64"
           transform="translate(180.3027,240.2441)"><path
             d="M 0,0 H 23.452"
             style="fill:none;stroke:#a9c6ea;stroke-width:1;stroke-linecap:butt;stroke-linejoin:miter;stroke-miterlimit:10;stroke-dasharray:none;stroke-opacity:1"
             id="path66" /></g><g
           id="g68"
           transform="translate(208.7104,240.2441)"><path
             d="M 0,0 H 12.174"
             style="fill:none;stroke:#a9c6ea;stroke-width:1;stroke-linecap:butt;stroke-linejoin:miter;stroke-miterlimit:10;stroke-dasharray:none;stroke-opacity:1"
             id="path70" /></g><g
           id="g72"
           transform="translate(482.7041,270.1538)"><path
             d="m 0,0 c 0,-2.542 -2.062,-4.604 -4.604,-4.604 -2.542,0 -4.603,2.062 -4.603,4.604 0,2.542 2.061,4.604 4.603,4.604 C -2.062,4.604 0,2.542 0,0 Z"
             style="fill:none;stroke:#a9c6ea;stroke-width:1;stroke-linecap:butt;stroke-linejoin:miter;stroke-miterlimit:10;stroke-dasharray:none;stroke-opacity:1"
             id="path74" /></g><g
           id="g76"
           transform="translate(663.6299,302.0093)"><path
             d="m 0,0 c 0,-2.542 -2.062,-4.604 -4.604,-4.604 -2.542,0 -4.603,2.062 -4.603,4.604 0,2.542 2.061,4.604 4.603,4.604 C -2.062,4.604 0,2.542 0,0 Z"
             style="fill:none;stroke:#a9c6ea;stroke-width:1;stroke-linecap:butt;stroke-linejoin:miter;stroke-miterlimit:10;stroke-dasharray:none;stroke-opacity:1"
             id="path78" /></g><g
           id="g80"
           transform="translate(492.7275,401.2544)"><path
             d="m 0,0 c 0,-2.542 -2.062,-4.604 -4.604,-4.604 -2.542,0 -4.603,2.062 -4.603,4.604 0,2.542 2.061,4.603 4.603,4.603 C -2.062,4.603 0,2.542 0,0 Z"
             style="fill:none;stroke:#a9c6ea;stroke-width:1;stroke-linecap:butt;stroke-linejoin:miter;stroke-miterlimit:10;stroke-dasharray:none;stroke-opacity:1"
             id="path82" /></g><g
           id="g84"
           transform="translate(582.6748,394.3608)"><path
             d="m 0,0 c 0,-1.265 -1.025,-2.291 -2.29,-2.291 -1.265,0 -2.29,1.026 -2.29,2.291 0,1.265 1.025,2.29 2.29,2.29 C -1.025,2.29 0,1.265 0,0 Z"
             style="fill:none;stroke:#a9c6ea;stroke-width:1;stroke-linecap:butt;stroke-linejoin:miter;stroke-miterlimit:10;stroke-dasharray:none;stroke-opacity:1"
             id="path86" /></g><g
           id="g88"
           transform="translate(442.6553,222.2881)"><path
             d="m 0,0 c 0,-1.265 -1.025,-2.29 -2.29,-2.29 -1.265,0 -2.29,1.025 -2.29,2.29 0,1.265 1.025,2.29 2.29,2.29 C -1.025,2.29 0,1.265 0,0 Z"
             style="fill:none;stroke:#a9c6ea;stroke-width:1;stroke-linecap:butt;stroke-linejoin:miter;stroke-miterlimit:10;stroke-dasharray:none;stroke-opacity:1"
             id="path90" /></g><g
           id="g92"
           transform="translate(176.5425,386.5552)"><path
             d="m 0,0 c 0,-1.265 -1.025,-2.29 -2.29,-2.29 -1.265,0 -2.29,1.025 -2.29,2.29 0,1.265 1.025,2.291 2.29,2.291 C -1.025,2.291 0,1.265 0,0 Z"
             style="fill:none;stroke:#a9c6ea;stroke-width:1;stroke-linecap:butt;stroke-linejoin:miter;stroke-miterlimit:10;stroke-dasharray:none;stroke-opacity:1"
             id="path94" /></g><g
           id="g96"
           transform="translate(73.0342,243.4473)"><path
             d="m 0,0 c 0,-1.265 -1.025,-2.29 -2.29,-2.29 -1.265,0 -2.29,1.025 -2.29,2.29 0,1.265 1.025,2.291 2.29,2.291 C -1.025,2.291 0,1.265 0,0 Z"
             style="fill:none;stroke:#a9c6ea;stroke-width:1;stroke-linecap:butt;stroke-linejoin:miter;stroke-miterlimit:10;stroke-dasharray:none;stroke-opacity:1"
             id="path98" /></g><g
           id="g100"
           transform="translate(185.8423,290.3638)"><path
             d="m 0,0 c 0,-1.265 -1.025,-2.291 -2.29,-2.291 -1.265,0 -2.291,1.026 -2.291,2.291 0,1.265 1.026,2.29 2.291,2.29 C -1.025,2.29 0,1.265 0,0 Z"
             style="fill:none;stroke:#a9c6ea;stroke-width:1;stroke-linecap:butt;stroke-linejoin:miter;stroke-miterlimit:10;stroke-dasharray:none;stroke-opacity:1"
             id="path102" /></g><g
           id="g104"
           transform="translate(115.1743,361.4272)"><path
             d="M 0,0 V -5.42"
             style="fill:none;stroke:#a9c6ea;stroke-width:1;stroke-linecap:butt;stroke-linejoin:miter;stroke-miterlimit:10;stroke-dasharray:none;stroke-opacity:1"
             id="path106" /></g><g
           id="g108"
           transform="translate(117.8843,358.7173)"><path
             d="M 0,0 H -5.42"
             style="fill:none;stroke:#a9c6ea;stroke-width:1;stroke-linecap:butt;stroke-linejoin:miter;stroke-miterlimit:10;stroke-dasharray:none;stroke-opacity:1"
             id="path110" /></g><g
           id="g112"
           transform="translate(432.2529,433.7329)"><path
             d="M 0,0 V -5.42"
             style="fill:none;stroke:#a9c6ea;stroke-width:1;stroke-linecap:butt;stroke-linejoin:miter;stroke-miterlimit:10;stroke-dasharray:none;stroke-opacity:1"
             id="path114" /></g><g
           id="g116"
           transform="translate(434.9629,431.0229)"><path
             d="M 0,0 H -5.42"
             style="fill:none;stroke:#a9c6ea;stroke-width:1;stroke-linecap:butt;stroke-linejoin:miter;stroke-miterlimit:10;stroke-dasharray:none;stroke-opacity:1"
             id="path118" /></g><g
           id="g120"
           transform="translate(602.8369,349.9121)"><path
             d="M 0,0 V -5.42"
             style="fill:none;stroke:#a9c6ea;stroke-width:1;stroke-linecap:butt;stroke-linejoin:miter;stroke-miterlimit:10;stroke-dasharray:none;stroke-opacity:1"
             id="path122" /></g><g
           id="g124"
           transform="translate(605.5469,347.2021)"><path
             d="M 0,0 H -5.42"
             style="fill:none;stroke:#a9c6ea;stroke-width:1;stroke-linecap:butt;stroke-linejoin:miter;stroke-miterlimit:10;stroke-dasharray:none;stroke-opacity:1"
             id="path126" /></g><g
           id="g128"
           transform="translate(691.4521,277.4668)"><path
             d="M 0,0 V -5.419"
             style="fill:none;stroke:#a9c6ea;stroke-width:1;stroke-linecap:butt;stroke-linejoin:miter;stroke-miterlimit:10;stroke-dasharray:none;stroke-opacity:1"
             id="path130" /></g><g
           id="g132"
           transform="translate(694.1621,274.7568)"><path
             d="M 0,0 H -5.42"
             style="fill:none;stroke:#a9c6ea;stroke-width:1;stroke-linecap:butt;stroke-linejoin:miter;stroke-miterlimit:10;stroke-dasharray:none;stroke-opacity:1"
             id="path134" /></g><g
           id="g136"
           transform="translate(665.8193,182.3291)"><path
             d="M 0,0 V -5.42"
             style="fill:none;stroke:#a9c6ea;stroke-width:1;stroke-linecap:butt;stroke-linejoin:miter;stroke-miterlimit:10;stroke-dasharray:none;stroke-opacity:1"
             id="path138" /></g><g
           id="g140"
           transform="translate(668.5293,179.6191)"><path
             d="M 0,0 H -5.42"
             style="fill:none;stroke:#a9c6ea;stroke-width:1;stroke-linecap:butt;stroke-linejoin:miter;stroke-miterlimit:10;stroke-dasharray:none;stroke-opacity:1"
             id="path142" /></g><g
           id="g144"
           transform="translate(466.2695,248.668)"><path
             d="M 0,0 C -9.01,2.618 -14.191,12.044 -11.573,21.055 -8.955,30.065 0.472,35.246 9.481,32.628 18.491,30.01 23.673,20.583 21.055,11.573 18.437,2.563 9.011,-2.618 0,0 m -1.687,-5.809 c -12.219,3.55 -19.246,16.333 -15.695,28.552 3.55,12.218 16.333,19.244 28.552,15.694 C 23.388,34.887 30.414,22.104 26.863,9.885 23.313,-2.333 10.53,-9.359 -1.687,-5.809 m 46.098,-0.464 c 1.732,3.046 3.148,6.335 4.169,9.848 1.021,3.513 1.587,7.048 1.758,10.549 l -9.632,1.334 c 0.079,3.249 -0.291,6.45 -1.06,9.53 l 9.122,3.407 C 46.862,35.309 43.352,41.697 38.534,47.01 l -7.763,-5.875 c -2.189,2.3 -4.693,4.327 -7.479,6.002 l 4.036,8.847 c -3.047,1.732 -6.335,3.148 -9.849,4.169 -3.512,1.021 -7.047,1.587 -10.548,1.758 L 5.597,52.279 C 2.348,52.358 -0.854,51.988 -3.934,51.22 l -3.406,9.12 c -6.914,-1.904 -13.302,-5.416 -18.615,-10.232 l 5.875,-7.764 c -2.3,-2.189 -4.327,-4.693 -6.002,-7.479 l -8.848,4.036 c -1.731,-3.047 -3.147,-6.335 -4.169,-9.848 -1.02,-3.513 -1.587,-7.049 -1.757,-10.549 l 9.631,-1.334 c -0.079,-3.249 0.291,-6.45 1.061,-9.53 l -9.121,-3.407 c 1.904,-6.914 5.415,-13.302 10.232,-18.615 l 7.764,5.875 c 2.188,-2.3 4.692,-4.328 7.478,-6.002 l -4.036,-8.847 c 3.047,-1.732 6.336,-3.149 9.849,-4.169 3.513,-1.021 7.048,-1.587 10.549,-1.758 l 1.334,9.633 c 3.249,-0.08 6.45,0.29 9.53,1.058 l 3.406,-9.12 c 6.914,1.903 13.302,5.415 18.616,10.233 l -5.875,7.763 c 2.299,2.189 4.328,4.693 6.001,7.479 z"
             style="fill:#e4ecf9;fill-opacity:1;fill-rule:nonzero;stroke:none"
             id="path146" /></g><g
           id="g148"
           transform="translate(500.9961,325.231)"><path
             d="m 0,0 c -5.017,-1.669 -10.437,1.044 -12.105,6.061 -1.669,5.016 1.044,10.436 6.06,12.105 C -1.028,19.835 4.392,17.122 6.061,12.105 7.729,7.089 5.017,1.669 0,0 m 19.434,11.028 c -0.151,1.724 -0.497,3.458 -1.068,5.172 -0.57,1.714 -1.331,3.309 -2.244,4.78 L 11.834,18.821 C 10.955,20.164 9.907,21.36 8.73,22.397 l 2.752,3.942 C 8.77,28.614 5.551,30.226 2.104,31.035 L 0.596,26.47 c -1.534,0.321 -3.121,0.443 -4.723,0.342 l -0.841,4.727 c -1.723,-0.151 -3.457,-0.497 -5.171,-1.068 -1.714,-0.57 -3.309,-1.331 -4.78,-2.243 l 2.159,-4.289 c -1.343,-0.879 -2.54,-1.927 -3.576,-3.103 l -3.942,2.751 c -2.276,-2.712 -3.887,-5.931 -4.696,-9.379 l 4.565,-1.507 c -0.32,-1.534 -0.443,-3.121 -0.342,-4.722 l -4.728,-0.841 c 0.152,-1.724 0.498,-3.458 1.068,-5.172 0.57,-1.714 1.332,-3.309 2.244,-4.78 l 4.289,2.159 c 0.879,-1.343 1.927,-2.539 3.103,-3.576 l -2.751,-3.942 c 2.713,-2.276 5.93,-3.887 9.379,-4.696 l 1.506,4.565 c 1.536,-0.321 3.121,-0.443 4.723,-0.342 l 0.841,-4.727 c 1.723,0.151 3.458,0.497 5.172,1.067 1.714,0.571 3.309,1.332 4.78,2.244 l -2.159,4.289 c 1.343,0.879 2.539,1.927 3.576,3.103 l 3.941,-2.751 c 2.277,2.713 3.888,5.931 4.696,9.379 l -4.565,1.507 c 0.322,1.535 0.444,3.12 0.342,4.723 z"
             style="fill:#e4ecf9;fill-opacity:1;fill-rule:nonzero;stroke:none"
             id="path150" /></g><g
           id="g152"
           transform="translate(254.4971,351.7832)"><path
             d="m 0,0 c -7.677,-2.555 -15.972,1.598 -18.527,9.276 -2.555,7.678 1.598,15.973 9.276,18.527 C -1.573,30.357 6.721,26.205 9.276,18.527 11.831,10.849 7.678,2.555 0,0 m 29.744,16.878 c -0.231,2.639 -0.762,5.292 -1.635,7.915 -0.872,2.624 -2.037,5.066 -3.434,7.316 l -6.563,-3.304 c -1.345,2.055 -2.949,3.887 -4.75,5.473 l 4.211,6.034 C 13.421,43.794 8.496,46.261 3.219,47.498 L 0.912,40.512 c -2.349,0.491 -4.776,0.677 -7.228,0.523 l -1.287,7.236 c -2.638,-0.231 -5.292,-0.762 -7.915,-1.634 -2.623,-0.873 -5.065,-2.038 -7.315,-3.434 l 3.304,-6.564 c -2.055,-1.346 -3.887,-2.95 -5.473,-4.75 l -6.034,4.212 c -3.483,-4.152 -5.949,-9.079 -7.186,-14.355 l 6.986,-2.307 c -0.491,-2.349 -0.678,-4.776 -0.523,-7.228 l -7.235,-1.287 c 0.23,-2.638 0.761,-5.292 1.634,-7.915 0.872,-2.623 2.037,-5.065 3.434,-7.316 l 6.563,3.305 c 1.345,-2.055 2.949,-3.887 4.75,-5.474 l -4.211,-6.032 c 4.152,-3.484 9.077,-5.95 14.354,-7.187 l 2.307,6.986 c 2.349,-0.491 4.777,-0.678 7.228,-0.523 l 1.287,-7.235 c 2.638,0.23 5.292,0.76 7.915,1.633 2.623,0.873 5.065,2.038 7.316,3.435 l -3.305,6.563 c 2.055,1.345 3.888,2.95 5.473,4.75 l 6.034,-4.211 c 3.483,4.151 5.949,9.077 7.186,14.354 l -6.986,2.307 c 0.491,2.348 0.678,4.776 0.523,7.228 z"
             style="fill:#e4ecf9;fill-opacity:1;fill-rule:nonzero;stroke:none"
             id="path154" /></g><g
           id="g156"
           transform="translate(193.3257,317.5503)"><path
             d="m 0,0 c -5.104,1.483 -8.04,6.823 -6.556,11.927 1.483,5.104 6.823,8.039 11.927,6.556 C 10.475,17 13.41,11.66 11.927,6.556 10.444,1.452 5.104,-1.483 0,0 m -0.956,-3.291 c -6.921,2.012 -10.902,9.253 -8.891,16.174 2.012,6.922 9.253,10.902 16.174,8.891 C 13.249,19.763 17.229,12.521 15.217,5.6 13.207,-1.321 5.965,-5.302 -0.956,-3.291 m 26.114,-0.263 c 0.981,1.726 1.783,3.589 2.361,5.579 0.579,1.99 0.899,3.993 0.996,5.976 l -5.456,0.756 c 0.045,1.84 -0.165,3.654 -0.601,5.399 l 5.167,1.929 c -1.079,3.916 -3.067,7.536 -5.796,10.545 l -4.398,-3.328 c -1.24,1.303 -2.659,2.452 -4.237,3.4 l 2.287,5.012 c -1.727,0.981 -3.589,1.783 -5.579,2.362 -1.99,0.578 -3.993,0.899 -5.976,0.996 L 3.17,29.615 c -1.84,0.045 -3.653,-0.165 -5.399,-0.6 l -1.929,5.167 c -3.917,-1.079 -7.535,-3.068 -10.545,-5.797 l 3.328,-4.398 c -1.303,-1.24 -2.452,-2.658 -3.4,-4.237 l -5.012,2.287 c -0.981,-1.726 -1.783,-3.589 -2.361,-5.579 -0.579,-1.99 -0.9,-3.993 -0.997,-5.976 l 5.457,-0.755 c -0.045,-1.841 0.165,-3.654 0.6,-5.399 l -5.166,-1.93 c 1.078,-3.916 3.067,-7.535 5.796,-10.545 l 4.398,3.328 c 1.24,-1.303 2.658,-2.452 4.236,-3.4 l -2.286,-5.011 c 1.726,-0.981 3.589,-1.784 5.579,-2.362 1.99,-0.578 3.992,-0.899 5.976,-0.996 l 0.755,5.456 c 1.841,-0.045 3.654,0.165 5.399,0.601 l 1.93,-5.167 c 3.916,1.078 7.535,3.068 10.545,5.796 l -3.328,4.398 c 1.302,1.24 2.451,2.658 3.4,4.236 z"
             style="fill:#e4ecf9;fill-opacity:1;fill-rule:nonzero;stroke:none"
             id="path158" /></g><g
           id="g160"
           transform="translate(344.312,39.7969)"><path
             d="m 0,0 c 3.045,6.284 18.922,33.785 35.661,42.871 2.127,1.154 4.371,2.225 6.781,2.451 2.41,0.227 5.039,-0.537 6.498,-2.469 1.33,-1.762 1.477,-4.167 1.094,-6.342 C 46.994,19.308 27.4,12.72 17.83,0"
             style="fill:#d7e3f4;fill-opacity:1;fill-rule:nonzero;stroke:none"
             id="path162" /></g><g
           id="g164"
           transform="translate(344.312,39.8994)"><path
             d="M 0,0 C 0,0 15.75,31.092 31.129,49.614 38.41,58.382 43.41,74.623 35.755,79.49 24.679,86.53 13.795,70.847 8.809,63.06 1.268,51.282 -4.28,38.25 -8.558,24.973 -9.178,23.05 -14.827,0 -14.939,0 h 3.819 z"
             style="fill:#d7e3f4;fill-opacity:1;fill-rule:nonzero;stroke:none"
             id="path166" /></g><g
           id="g168"
           transform="translate(374.4321,110.4854)"><path
             d="M 0,0 C -14.524,-18.363 -26.572,-45.549 -34.577,-70.586"
             style="fill:none;stroke:#ffffff;stroke-width:1;stroke-linecap:butt;stroke-linejoin:miter;stroke-miterlimit:10;stroke-dasharray:none;stroke-opacity:1"
             id="path170" /></g><g
           id="g172"
           transform="translate(311.2842,39.8994)"><path
             d="m 0,0 c 0,0 -1.829,47.841 -22.997,69.958 -5.719,5.976 -15.096,12.187 -22.79,13.888 -9.972,2.205 -9.701,-9.523 -7.896,-17.121 2.341,-9.847 10.387,-15.987 16.19,-23.321 C -26.814,29.909 -20.441,21.001 -12.645,0"
             style="fill:#b2cded;fill-opacity:1;fill-rule:nonzero;stroke:none"
             id="path174" /></g><g
           id="g176"
           transform="translate(317.647,39.8994)"><path
             d="m 0,0 c 5.715,10.457 3.705,55.165 0.839,69.169 -1.991,9.733 -6.078,19.23 -11.667,27.003 -5.065,7.043 -20.202,22.567 -29.11,16.259 -5.152,-3.65 2.651,-16.791 4.71,-20.738 6.676,-12.795 11.968,-26.473 16.105,-40.544 4.785,-16.275 8.404,-33.38 9.698,-50.498 C -9.408,0.435 -9.394,0.217 -9.379,0"
             style="fill:#d7e3f4;fill-opacity:1;fill-rule:nonzero;stroke:none"
             id="path178" /></g><g
           id="g180"
           transform="translate(318.6924,39.8994)"><path
             d="m 0,0 c -1.883,25.034 -0.678,63.453 10.607,85.155 12.798,24.609 29.479,35.971 31.9,26.38 C 49.53,83.718 21.349,8.902 13.414,0"
             style="fill:#b2cded;fill-opacity:1;fill-rule:nonzero;stroke:none"
             id="path182" /></g><g
           id="g184"
           transform="translate(262.7007,115.7568)"><path
             d="M 0,0 C 22.777,-15.879 38.499,-45.954 41.425,-75.857"
             style="fill:none;stroke:#ffffff;stroke-width:1;stroke-linecap:butt;stroke-linejoin:miter;stroke-miterlimit:10;stroke-dasharray:none;stroke-opacity:1"
             id="path186" /></g><g
           id="g188"
           transform="translate(286.0068,144.3457)"><path
             d="m 0,0 c 11.192,-9.994 16.882,-25.627 20.322,-40.764 4.738,-20.846 7.017,-42.212 7.765,-63.682"
             style="fill:none;stroke:#ffffff;stroke-width:1;stroke-linecap:butt;stroke-linejoin:miter;stroke-miterlimit:10;stroke-dasharray:none;stroke-opacity:1"
             id="path190" /></g><g
           id="g192"
           transform="translate(354.0112,140.9062)"><path
             d="M 0,0 C -13.777,-31.652 -25.396,-65.851 -27.34,-101.007"
             style="fill:none;stroke:#ffffff;stroke-width:1;stroke-linecap:butt;stroke-linejoin:miter;stroke-miterlimit:10;stroke-dasharray:none;stroke-opacity:1"
             id="path194" /></g><g
           id="g196"
           transform="translate(386.5176,79.1152)"><path
             d="M 0,0 C 0,0 -20.135,-13.375 -34.188,-39.216"
             style="fill:none;stroke:#ffffff;stroke-width:1;stroke-linecap:butt;stroke-linejoin:miter;stroke-miterlimit:10;stroke-dasharray:none;stroke-opacity:1"
             id="path198" /></g><g
           id="g200"
           transform="translate(592.5498,39.9795)"><path
             d="m 0,0 c 2.99,39.539 -0.342,78.318 14.721,115.786 4.274,10.635 14.015,27.409 27.487,27.983 20.808,0.885 8.067,-40.917 4.298,-56.561 C 44.082,77.149 40.467,67.143 36.712,57.522 30.055,40.467 20.042,16.619 12.476,0"
             style="fill:#b2cded;fill-opacity:1;fill-rule:nonzero;stroke:none"
             id="path202" /></g><g
           id="g204"
           transform="translate(581.7471,39.9795)"><path
             d="m 0,0 c -6.552,16.762 -12.961,33.579 -19.441,50.368 -5.747,14.891 -12.435,29.451 -17.079,44.748 -3.535,11.644 -12.669,38.327 0.704,46.53 C -12.002,156.251 7.029,99.734 9.542,79.662 12.853,53.206 12.138,26.595 12.535,0"
             style="fill:#d7e3f4;fill-opacity:1;fill-rule:nonzero;stroke:none"
             id="path206" /></g><g
           id="g208"
           transform="translate(562.8232,39.9795)"><path
             d="M 0,0 C 0,0 -13.916,17.777 -20.192,26.115 -34.214,44.737 -51.5,64.964 -48.92,85.897 c 0.594,4.819 2.359,10.181 7.2,13.032 2.96,1.742 6.636,2.225 9.997,1.905 C -20.329,99.749 -10.122,83.203 -4.997,74.722 5.041,58.11 20.585,0 20.585,0"
             style="fill:#b2cded;fill-opacity:1;fill-rule:nonzero;stroke:none"
             id="path210" /></g><g
           id="g212"
           transform="translate(552.1777,169.9072)"><path
             d="M 0,0 C 16.987,-34.354 33.566,-97.971 33.975,-129.928"
             style="fill:none;stroke:#ffffff;stroke-width:1;stroke-linecap:butt;stroke-linejoin:miter;stroke-miterlimit:10;stroke-dasharray:none;stroke-opacity:1"
             id="path214" /></g><g
           id="g216"
           transform="translate(525.7705,130.4531)"><path
             d="M 0,0 C 14.946,-28.713 45.345,-90.474 45.345,-90.474"
             style="fill:none;stroke:#ffffff;stroke-width:1;stroke-linecap:butt;stroke-linejoin:miter;stroke-miterlimit:10;stroke-dasharray:none;stroke-opacity:1"
             id="path218" /></g><g
           id="g220"
           transform="translate(633.8936,174.6553)"><path
             d="M 0,0 C -12.197,-27.199 -28.912,-86.156 -35.644,-134.756"
             style="fill:none;stroke:#ffffff;stroke-width:1;stroke-linecap:butt;stroke-linejoin:miter;stroke-miterlimit:10;stroke-dasharray:none;stroke-opacity:1"
             id="path222" /></g><g
           id="g224"
           transform="translate(605.6133,39.9795)"><path
             d="m 0,0 c 0,0 6.954,30.986 11.769,48.576 5.235,19.127 22.361,48.403 40.363,56.721 4.143,1.914 9.139,3.229 13.146,1.045 2.451,-1.336 4.119,-3.816 5.024,-6.455 C 73.365,90.938 58.376,62.682 53.222,54.752 43.127,39.223 28.67,14.55 17.208,0"
             style="fill:#d7e3f4;fill-opacity:1;fill-rule:nonzero;stroke:none"
             id="path226" /></g><g
           id="g228"
           transform="translate(667.5518,139.0469)"><path
             d="M 0,0 C -21.283,-18.479 -49.755,-77.398 -57.715,-99.067"
             style="fill:none;stroke:#ffffff;stroke-width:1;stroke-linecap:butt;stroke-linejoin:miter;stroke-miterlimit:10;stroke-dasharray:none;stroke-opacity:1"
             id="path230" /></g><g
           id="g232"
           transform="translate(143.7617,59.2578)"><path
             d="m 0,0 c -2.726,14.451 -7.196,43.105 -10.587,60.689 -1.641,8.51 -6.391,18.904 -9.405,26.976 -5.5,14.731 -18.79,40.326 -35.27,38.958 -20.448,-1.698 -3.923,-38.459 1.284,-52.337 3.349,-8.922 7.858,-17.654 12.466,-26.015 8.172,-14.822 20.285,-35.462 29.303,-49.775"
             style="fill:#b2cded;fill-opacity:1;fill-rule:nonzero;stroke:none"
             id="path234" /></g><g
           id="g236"
           transform="translate(155.5659,74.8525)"><path
             d="m 0,0 c -4.99,13.052 -3.642,29.651 -3.625,43.465 0.03,24.86 8.663,59.81 24.852,76.125 6.673,6.725 17.715,14.204 24.888,3.923 C 52.908,113.777 45.054,87.316 42.58,75.947 37.734,53.683 14.527,12.445 7.823,-9.112"
             style="fill:#b2cded;fill-opacity:1;fill-rule:nonzero;stroke:none"
             id="path238" /></g><g
           id="g240"
           transform="translate(189.7915,186.998)"><path
             d="M 0,0 C -11.502,-29.836 -26.965,-84.274 -30.911,-116.007"
             style="fill:none;stroke:#ffffff;stroke-width:1;stroke-linecap:butt;stroke-linejoin:miter;stroke-miterlimit:10;stroke-dasharray:none;stroke-opacity:1"
             id="path242" /></g><g
           id="g244"
           transform="translate(90.229,177.6543)"><path
             d="M 0,0 C 14.577,-23.447 35.943,-73.672 47.249,-117.385"
             style="fill:none;stroke:#ffffff;stroke-width:1;stroke-linecap:butt;stroke-linejoin:miter;stroke-miterlimit:10;stroke-dasharray:none;stroke-opacity:1"
             id="path246" /></g><g
           id="g248"
           transform="translate(144.3442,90.8535)"><path
             d="m 0,0 c 6.133,10.037 13.408,42.618 15.067,54.264 2.333,16.374 2.585,33.673 -1.469,49.802 -2.735,10.883 -15.253,43.438 -30.96,28.756 -7.376,-6.894 -6.2,-44.469 -5.321,-54.528 1.721,-19.697 11.924,-54.97 15.426,-74.43"
             style="fill:#d7e3f4;fill-opacity:1;fill-rule:nonzero;stroke:none"
             id="path250" /></g><g
           id="g252"
           transform="translate(135.6807,215.2803)"><path
             d="M 0,0 C 10.785,-28.091 8.054,-97.896 4.684,-122.308"
             style="fill:none;stroke:#ffffff;stroke-width:1;stroke-linecap:butt;stroke-linejoin:miter;stroke-miterlimit:10;stroke-dasharray:none;stroke-opacity:1"
             id="path254" /></g><g
           id="g256"
           transform="translate(48.498,39.8994)"><path
             d="M 0,0 H 627.826"
             style="fill:none;stroke:#648acc;stroke-width:1;stroke-linecap:butt;stroke-linejoin:miter;stroke-miterlimit:10;stroke-dasharray:none;stroke-opacity:1"
             id="path258" /></g><g
           id="g260"
           transform="translate(301.8882,322.5752)"><path
             d="m 0,0 c 3.068,3.027 10.516,13.259 11.362,13.007 0.846,-0.252 -1.727,-3.885 -0.993,-3.963 0.733,-0.077 5.069,5.246 5.848,4.769 1.054,-0.647 -3.68,-5.86 -3.68,-5.86 0,0 5.469,5.451 6.221,4.626 0.534,-0.585 -3.449,-4.938 -4.763,-6.792 1.679,1.829 4.751,4.468 5.292,3.85 0.535,-0.614 -2.113,-3.634 -4.018,-6.057 1.33,1.4 3.889,3.819 4.415,3.271 C 20.208,6.304 13.801,-3.452 7.932,-10.571"
             style="fill:#f886bc;fill-opacity:1;fill-rule:nonzero;stroke:none"
             id="path262" /></g><g
           id="g264"
           transform="translate(262.8208,285.2051)"><path
             d="m 0,0 c 26.108,22.307 43.625,42.703 43.625,42.703 l 9.806,-6.549 c 0,0 -16.456,-25.513 -37.996,-47.468"
             style="fill:#f886bc;fill-opacity:1;fill-rule:nonzero;stroke:none"
             id="path266" /></g><g
           id="g268"
           transform="translate(255.0229,277.7466)"><path
             d="M 0,0 C 5.393,6.773 14.3,13.324 14.3,13.324 L 30.114,0.538 16.235,-15.744"
             style="fill:#bf2c4c;fill-opacity:1;fill-rule:nonzero;stroke:none"
             id="path270" /></g><g
           id="g272"
           transform="translate(282.2676,161.7588)"><path
             d="m 0,0 -8.372,-110.248 9.906,-6.307 c 0,0 -27.223,-1.416 -28.109,-0.525 -0.884,0.892 1.117,6.998 1.117,6.998 L -30.003,0.263 Z"
             style="fill:#f886bc;fill-opacity:1;fill-rule:nonzero;stroke:none"
             id="path274" /></g><g
           id="g276"
           transform="translate(260.0293,44.7559)"><path
             d="m 0,0 -4.054,3.986 0.574,2.094 6.23,-6.09 2.999,-0.011 10.566,5.216 11.471,-7.18 c 1.325,-0.829 0.734,-2.877 -0.83,-2.871 L 11.538,-4.801 6.617,-1.377 5.22,-1.372 5.208,-4.777 -4.833,-4.74 -4.816,0.018 Z"
             style="fill:#28364c;fill-opacity:1;fill-rule:nonzero;stroke:none"
             id="path278" /></g><g
           id="g280"
           transform="translate(260.2803,162.3467)"><path
             d="m 0,0 -24.693,-110.836 9.905,-6.307 c 0,0 -27.223,-1.416 -28.108,-0.525 -0.885,0.893 1.117,6.998 1.117,6.998 L -34.562,0 Z"
             style="fill:#f886bc;fill-opacity:1;fill-rule:nonzero;stroke:none"
             id="path282" /></g><g
           id="g284"
           transform="translate(221.7207,44.7559)"><path
             d="m 0,0 -4.053,3.986 0.573,2.094 6.23,-6.09 2.999,-0.011 10.566,5.216 11.471,-7.18 c 1.326,-0.829 0.734,-2.877 -0.83,-2.871 L 11.538,-4.801 6.617,-1.377 5.22,-1.372 5.208,-4.777 -4.833,-4.74 -4.816,0.018 Z"
             style="fill:#28364c;fill-opacity:1;fill-rule:nonzero;stroke:none"
             id="path286" /></g><g
           id="g288"
           transform="translate(234.3193,219.5205)"><path
             d="m 0,0 c -13.584,-23.906 -13.559,-68.384 -13.559,-68.384 h 62.972 c 0,0 -0.868,39.066 -7.9,61.076 z"
             style="fill:#101d54;fill-opacity:1;fill-rule:nonzero;stroke:none"
             id="path290" /></g><g
           id="g292"
           transform="translate(255.3613,217.3721)"><path
             d="M 0,0 1.569,-66.235"
             style="fill:none;stroke:#273b7a;stroke-width:0.75;stroke-linecap:butt;stroke-linejoin:miter;stroke-miterlimit:10;stroke-dasharray:none;stroke-opacity:1"
             id="path294" /></g><g
           id="g296"
           transform="translate(269.2954,214.5869)"><path
             d="M 0,0 C 0,0 -3.184,-8.067 -13.934,-10.858"
             style="fill:none;stroke:#273b7a;stroke-width:0.75;stroke-linecap:butt;stroke-linejoin:miter;stroke-miterlimit:10;stroke-dasharray:none;stroke-opacity:1"
             id="path298" /></g><g
           id="g300"
           transform="translate(324.9741,242.7666)"><path
             d="m 0,0 c 4.138,-1.205 16.702,-2.728 16.894,-3.589 0.191,-0.862 -4.235,-0.384 -3.945,-1.062 0.29,-0.678 7.051,-1.873 7.013,-2.786 -0.052,-1.235 -6.91,0.36 -6.91,0.36 0,0 7.425,-2.122 7.07,-3.181 -0.251,-0.75 -5.993,0.609 -8.251,0.853 2.414,-0.575 6.216,-1.973 5.939,-2.746 -0.275,-0.767 -4.203,0.075 -7.247,0.559 1.871,-0.48 5.229,-1.537 5.007,-2.263 -0.222,-0.725 -9.917,0.656 -18.993,2.315"
             style="fill:#f886bc;fill-opacity:1;fill-rule:nonzero;stroke:none"
             id="path302" /></g><g
           id="g304"
           transform="translate(250.8945,284.1367)"><path
             d="m 0,0 c 0,0 1.037,-2.661 6.69,-2.661 3.949,0 5.437,2.07 5.437,2.07 0,0 1.455,-1.304 17.011,-21.721 3.294,-4.323 2.583,-13.65 -2.923,-21.715 -1.302,-8.096 -1.789,-17.532 -1.278,-27.897 h -45.023 c 0,0 -0.786,32.349 2.328,49.991 C -15.917,-11.498 -8.092,-3.202 0,0"
             style="fill:#e03b5a;fill-opacity:1;fill-rule:nonzero;stroke:none"
             id="path306" /></g><g
           id="g308"
           transform="translate(280.6372,270.1538)"><path
             d="M 0,0 C 30,-23.539 50.804,-28.647 50.804,-28.647 L 48.357,-40.18 c 0,0 -36.032,4.57 -59.699,24.462"
             style="fill:#f886bc;fill-opacity:1;fill-rule:nonzero;stroke:none"
             id="path310" /></g><g
           id="g312"
           transform="translate(263.2139,282.7671)"><path
             d="M 0,0 C 7.697,-1.295 19.509,-12.624 19.509,-12.624 L 6.973,-31.025 c 0,0 -5.322,3.685 -12.535,9.884"
             style="fill:#e03b5a;fill-opacity:1;fill-rule:evenodd;stroke:none"
             id="path314" /></g><g
           id="g316"
           transform="translate(270.187,252.4341)"><path
             d="M 0,0 C -9.39,5.717 -13.613,9.91 -13.613,9.91"
             style="fill:none;stroke:#a31d4a;stroke-width:0.75;stroke-linecap:butt;stroke-linejoin:miter;stroke-miterlimit:10;stroke-dasharray:none;stroke-opacity:1"
             id="path318" /></g><g
           id="g320"
           transform="translate(266.5747,304.0771)"><path
             d="m 0,0 c 3.13,-5.174 4.425,-10.348 0.04,-13.001 -4.386,-2.653 -11.437,-3.973 -15.921,3.394 -3.144,5.165 -2.113,11.518 2.273,14.171 C -9.223,7.217 -3.13,5.174 0,0"
             style="fill:#f886bc;fill-opacity:1;fill-rule:evenodd;stroke:none"
             id="path322" /></g><g
           id="g324"
           transform="translate(262.9302,302.7534)"><path
             d="M 0,0 C 0.145,-0.525 0.559,-1.143 1.078,-1.125 1.225,-1.119 1.334,-1.029 1.38,-0.893 1.684,0.001 -0.303,1.097 0,0"
             style="fill:#0b0b3a;fill-opacity:1;fill-rule:nonzero;stroke:none"
             id="path326" /></g><g
           id="g328"
           transform="translate(260.8545,303.1992)"><path
             d="M 0,0 C 0.808,1.14 1.882,1.605 2.973,1.736"
             style="fill:none;stroke:#0b0b3a;stroke-width:0.5;stroke-linecap:round;stroke-linejoin:miter;stroke-miterlimit:10;stroke-dasharray:none;stroke-opacity:1"
             id="path330" /></g><g
           id="g332"
           transform="translate(267.7666,298.1792)"><path
             d="m 0,0 -2.902,-1.45 c 0,0 1.024,-2.504 2.592,-2.035 C 1,-3.094 0,0 0,0"
             style="fill:#ffffff;fill-opacity:1;fill-rule:nonzero;stroke:none"
             id="path334" /></g><g
           id="g336"
           transform="translate(263.2139,282.7671)"><path
             d="m 0,0 c 0,0 -2.506,-1.37 -5.629,-1.292 -4.53,0.114 -6.69,1.925 -6.69,1.925 l 2.987,12.763 10.983,-0.801 z"
             style="fill:#f886bc;fill-opacity:1;fill-rule:evenodd;stroke:none"
             id="path338" /></g><g
           id="g340"
           transform="translate(265.5166,303.8408)"><path
             d="M 0,0 C 0,0 3.751,-2.508 3.884,-3.175 4.017,-3.843 2.43,-4.809 2.43,-4.809"
             style="fill:#f886bc;fill-opacity:1;fill-rule:evenodd;stroke:none"
             id="path342" /></g><g
           id="g344"
           transform="translate(255.0229,312.2041)"><path
             d="m 0,0 c -0.405,-0.205 -1.804,0.173 -2.312,0.173 -0.713,-0.001 -1.427,-0.052 -2.129,-0.181 -4.182,-0.763 -7.305,-4.223 -9.274,-7.784 -1.293,-2.338 -2.38,-4.935 -4.733,-6.419 -5.172,-3.261 -11.961,-2.094 -17.756,-4.045 -5.897,-1.985 -10.414,-7.97 -8.832,-14.354 0.517,-2.091 1.615,-3.993 2.261,-6.047 1.379,-4.384 0.734,-9.486 3.367,-13.252 0.706,-1.01 1.618,-1.864 2.6,-2.61 4.403,-3.344 10.393,-4.496 15.723,-3.021 5.329,1.474 9.876,5.54 11.934,10.672 2.34,5.834 1.609,12.785 5.023,18.064 1.594,2.466 3.975,4.346 5.559,6.819 1.447,2.26 2.209,6.511 2.382,9.232 0.041,0.628 -1.085,5.854 -0.748,5.854 2.708,0 6.177,1.685 7.778,3.285 C 8.804,0.864 3.595,1.822 0,0"
             style="fill:#0b0b3a;fill-opacity:1;fill-rule:nonzero;stroke:none"
             id="path346" /></g><g
           id="g348"
           transform="translate(257.9473,298.769)"><path
             d="m 0,0 c 0,0 -1.573,1.09 -2.607,-0.455 -1.336,-1.997 1.881,-4.52 3.43,-4.636 1.549,-0.117 1.51,1.565 1.51,1.565"
             style="fill:#f886bc;fill-opacity:1;fill-rule:nonzero;stroke:none"
             id="path350" /></g><path
           d="m 595.089,199.709 h -97.91 v 130.753 h 97.91 z"
           style="fill:#d9e4f4;fill-opacity:1;fill-rule:nonzero;stroke:#648acc;stroke-width:1;stroke-linecap:butt;stroke-linejoin:miter;stroke-miterlimit:10;stroke-dasharray:none;stroke-opacity:1"
           id="path352" /><path
           d="m 609.713,199.709 h -97.91 v 130.753 h 97.91 z"
           style="fill:#ffffff;fill-opacity:1;fill-rule:nonzero;stroke:#648acc;stroke-width:1;stroke-linecap:butt;stroke-linejoin:miter;stroke-miterlimit:10;stroke-dasharray:none;stroke-opacity:1"
           id="path354" /><g
           id="g356"><g
             id="g358" /><g
             id="g370"><g
               clip-path="url(#clipPath362)"
               opacity="0.449997"
               id="g368"><g
                 transform="translate(593.5039,303.1968)"
                 id="g366"><path
                   d="m 0,0 h -64.7 c -1.986,0 -3.595,1.609 -3.595,3.595 v 9.902 c 0,1.985 1.609,3.595 3.595,3.595 H 0 c 1.985,0 3.595,-1.61 3.595,-3.595 V 3.595 C 3.595,1.609 1.985,0 0,0"
                   style="fill:#d7e3f4;fill-opacity:1;fill-rule:nonzero;stroke:none"
                   id="path364" /></g></g></g></g><g
           id="g372"><g
             id="g374" /><g
             id="g386"><g
               clip-path="url(#clipPath378)"
               opacity="0.449997"
               id="g384"><g
                 transform="translate(562.9893,210.4941)"
                 id="g382"><path
                   d="m 0,0 h -34.186 c -1.985,0 -3.594,1.609 -3.594,3.595 v 40.862 c 0,1.985 1.609,3.595 3.594,3.595 H 0 c 1.985,0 3.595,-1.61 3.595,-3.595 V 3.595 C 3.595,1.609 1.985,0 0,0"
                   style="fill:#d7e3f4;fill-opacity:1;fill-rule:nonzero;stroke:none"
                   id="path380" /></g></g></g></g><g
           id="g388"
           transform="translate(530.5713,286.1914)"><path
             d="m 0,0 h -2.182 c -1.756,0 -3.18,1.868 -3.18,4.172 0,2.305 1.424,4.172 3.18,4.172 H 0 Z"
             style="fill:#b2cded;fill-opacity:1;fill-rule:nonzero;stroke:none"
             id="path390" /></g><g
           id="g392"
           transform="translate(533.7529,290.3638)"><path
             d="m 0,0 c 0,-2.304 -1.424,-4.172 -3.182,-4.172 -1.756,0 -3.181,1.868 -3.181,4.172 0,2.304 1.425,4.172 3.181,4.172 C -1.424,4.172 0,2.304 0,0"
             style="fill:#d7e3f4;fill-opacity:1;fill-rule:nonzero;stroke:none"
             id="path394" /></g><g
           id="g396"
           transform="translate(551.6865,286.1914)"><path
             d="m 0,0 h -2.181 c -1.757,0 -3.181,1.868 -3.181,4.172 0,2.305 1.424,4.172 3.181,4.172 H 0 Z"
             style="fill:#b2cded;fill-opacity:1;fill-rule:nonzero;stroke:none"
             id="path398" /></g><g
           id="g400"
           transform="translate(554.8682,290.3638)"><path
             d="m 0,0 c 0,-2.304 -1.424,-4.172 -3.182,-4.172 -1.756,0 -3.18,1.868 -3.18,4.172 0,2.304 1.424,4.172 3.18,4.172 C -1.424,4.172 0,2.304 0,0"
             style="fill:#d7e3f4;fill-opacity:1;fill-rule:nonzero;stroke:none"
             id="path402" /></g><g
           id="g404"
           transform="translate(572.8027,286.1914)"><path
             d="m 0,0 h -2.182 c -1.756,0 -3.181,1.868 -3.181,4.172 0,2.305 1.425,4.172 3.181,4.172 H 0 Z"
             style="fill:#b2cded;fill-opacity:1;fill-rule:nonzero;stroke:none"
             id="path406" /></g><g
           id="g408"
           transform="translate(575.9834,290.3638)"><path
             d="m 0,0 c 0,-2.304 -1.424,-4.172 -3.181,-4.172 -1.757,0 -3.181,1.868 -3.181,4.172 0,2.304 1.424,4.172 3.181,4.172 C -1.424,4.172 0,2.304 0,0"
             style="fill:#d7e3f4;fill-opacity:1;fill-rule:nonzero;stroke:none"
             id="path410" /></g><g
           id="g412"
           transform="translate(593.918,286.1914)"><path
             d="m 0,0 h -2.182 c -1.756,0 -3.181,1.868 -3.181,4.172 0,2.305 1.425,4.172 3.181,4.172 H 0 Z"
             style="fill:#b2cded;fill-opacity:1;fill-rule:nonzero;stroke:none"
             id="path414" /></g><g
           id="g416"
           transform="translate(597.0986,290.3638)"><path
             d="m 0,0 c 0,-2.304 -1.424,-4.172 -3.181,-4.172 -1.757,0 -3.181,1.868 -3.181,4.172 0,2.304 1.424,4.172 3.181,4.172 C -1.424,4.172 0,2.304 0,0"
             style="fill:#d7e3f4;fill-opacity:1;fill-rule:nonzero;stroke:none"
             id="path418" /></g><g
           id="g420"
           transform="translate(530.5713,265.9814)"><path
             d="m 0,0 h -2.182 c -1.756,0 -3.18,1.868 -3.18,4.172 0,2.305 1.424,4.172 3.18,4.172 H 0 Z"
             style="fill:#b2cded;fill-opacity:1;fill-rule:nonzero;stroke:none"
             id="path422" /></g><g
           id="g424"
           transform="translate(533.7529,270.1538)"><path
             d="m 0,0 c 0,-2.304 -1.424,-4.172 -3.182,-4.172 -1.756,0 -3.181,1.868 -3.181,4.172 0,2.304 1.425,4.172 3.181,4.172 C -1.424,4.172 0,2.304 0,0"
             style="fill:#d7e3f4;fill-opacity:1;fill-rule:nonzero;stroke:none"
             id="path426" /></g><g
           id="g428"
           transform="translate(551.6865,265.9814)"><path
             d="m 0,0 h -2.181 c -1.757,0 -3.181,1.868 -3.181,4.172 0,2.305 1.424,4.172 3.181,4.172 H 0 Z"
             style="fill:#b2cded;fill-opacity:1;fill-rule:nonzero;stroke:none"
             id="path430" /></g><g
           id="g432"
           transform="translate(554.8682,270.1538)"><path
             d="m 0,0 c 0,-2.304 -1.424,-4.172 -3.182,-4.172 -1.756,0 -3.18,1.868 -3.18,4.172 0,2.304 1.424,4.172 3.18,4.172 C -1.424,4.172 0,2.304 0,0"
             style="fill:#d7e3f4;fill-opacity:1;fill-rule:nonzero;stroke:none"
             id="path434" /></g><g
           id="g436"
           transform="translate(572.8027,265.9814)"><path
             d="m 0,0 h -2.182 c -1.756,0 -3.181,1.868 -3.181,4.172 0,2.305 1.425,4.172 3.181,4.172 H 0 Z"
             style="fill:#b2cded;fill-opacity:1;fill-rule:nonzero;stroke:none"
             id="path438" /></g><g
           id="g440"
           transform="translate(575.9834,270.1538)"><path
             d="m 0,0 c 0,-2.304 -1.424,-4.172 -3.181,-4.172 -1.757,0 -3.181,1.868 -3.181,4.172 0,2.304 1.424,4.172 3.181,4.172 C -1.424,4.172 0,2.304 0,0"
             style="fill:#d7e3f4;fill-opacity:1;fill-rule:nonzero;stroke:none"
             id="path442" /></g><g
           id="g444"
           transform="translate(593.918,265.9814)"><path
             d="m 0,0 h -2.182 c -1.756,0 -3.181,1.868 -3.181,4.172 0,2.305 1.425,4.172 3.181,4.172 H 0 Z"
             style="fill:#b2cded;fill-opacity:1;fill-rule:nonzero;stroke:none"
             id="path446" /></g><g
           id="g448"
           transform="translate(597.0986,270.1538)"><path
             d="m 0,0 c 0,-2.304 -1.424,-4.172 -3.181,-4.172 -1.757,0 -3.181,1.868 -3.181,4.172 0,2.304 1.424,4.172 3.181,4.172 C -1.424,4.172 0,2.304 0,0"
             style="fill:#d7e3f4;fill-opacity:1;fill-rule:nonzero;stroke:none"
             id="path450" /></g><g
           id="g452"
           transform="translate(125.3804,39.8994)"><path
             d="M 0,0 H 166.162 V 127.324 H 41.811 L 0,78.431 Z"
             style="fill:#ffffff;fill-opacity:1;fill-rule:nonzero;stroke:none"
             id="path454" /></g><g
           id="g456"
           transform="translate(125.3804,39.8994)"><path
             d="M 0,0 H 166.162 V 127.324 H 41.811 L 0,78.431 Z"
             style="fill:none;stroke:#648acc;stroke-width:1;stroke-linecap:butt;stroke-linejoin:miter;stroke-miterlimit:10;stroke-dasharray:none;stroke-opacity:1"
             id="path458" /></g><g
           id="g460"
           transform="translate(244.3726,39.8994)"><path
             d="M 0,0 H 61.223 V 127.324 H 40.967 L 0,78.431 Z"
             style="fill:#d9e4f4;fill-opacity:1;fill-rule:nonzero;stroke:none"
             id="path462" /></g><g
           id="g464"
           transform="translate(244.3726,39.8994)"><path
             d="M 0,0 H 61.223 V 127.324 H 40.967 L 0,78.431 Z"
             style="fill:none;stroke:#648acc;stroke-width:1;stroke-linecap:butt;stroke-linejoin:miter;stroke-miterlimit:10;stroke-dasharray:none;stroke-opacity:1"
             id="path466" /></g><path
           d="M 125.38,118.33 H 244.372 V 39.899 H 125.38 Z"
           style="fill:#d9e4f4;fill-opacity:1;fill-rule:nonzero;stroke:#648acc;stroke-width:1;stroke-linecap:butt;stroke-linejoin:miter;stroke-miterlimit:10;stroke-dasharray:none;stroke-opacity:1"
           id="path468" /><g
           id="g470"
           transform="translate(255.0186,152.9463)"><path
             d="M 0,0 C 1.139,-1.043 3.469,-0.342 5.205,1.567 6.94,3.476 7.424,5.868 6.285,6.911 5.512,7.618 3.924,9.071 3.924,9.071 L -2.36,2.16 c 0,0 1.221,-1.117 2.36,-2.16"
             style="fill:#b2cded;fill-opacity:1;fill-rule:nonzero;stroke:none"
             id="path472" /></g><g
           id="g474"
           transform="translate(252.8071,154.9697)"><path
             d="M 0,0 C 1.139,-1.042 3.469,-0.341 5.205,1.568 6.94,3.477 7.424,5.869 6.285,6.912 5.146,7.954 2.815,7.253 1.08,5.344 -0.656,3.436 -1.139,1.043 0,0"
             style="fill:#d7e3f4;fill-opacity:1;fill-rule:nonzero;stroke:none"
             id="path476" /></g><g
           id="g478"
           transform="translate(236.4961,152.9463)"><path
             d="m 0,0 c 1.139,-1.043 3.47,-0.342 5.205,1.567 1.735,1.909 2.219,4.301 1.08,5.344 -0.773,0.707 -2.36,2.16 -2.36,2.16 L -2.36,2.16 c 0,0 1.221,-1.117 2.36,-2.16"
             style="fill:#b2cded;fill-opacity:1;fill-rule:nonzero;stroke:none"
             id="path480" /></g><g
           id="g482"
           transform="translate(234.2852,154.9697)"><path
             d="M 0,0 C 1.139,-1.042 3.469,-0.341 5.205,1.568 6.94,3.477 7.423,5.869 6.285,6.912 5.146,7.954 2.815,7.253 1.08,5.344 -0.656,3.436 -1.139,1.043 0,0"
             style="fill:#d7e3f4;fill-opacity:1;fill-rule:nonzero;stroke:none"
             id="path484" /></g><g
           id="g486"
           transform="translate(198.3711,152.9463)"><path
             d="M 0,0 C 1.139,-1.043 3.47,-0.342 5.206,1.567 6.94,3.476 7.424,5.868 6.285,6.911 5.512,7.618 3.925,9.071 3.925,9.071 L -2.36,2.16 c 0,0 1.221,-1.117 2.36,-2.16"
             style="fill:#b2cded;fill-opacity:1;fill-rule:nonzero;stroke:none"
             id="path488" /></g><g
           id="g490"
           transform="translate(196.1602,154.9697)"><path
             d="M 0,0 C 1.139,-1.042 3.469,-0.341 5.205,1.568 6.94,3.477 7.424,5.869 6.285,6.912 5.146,7.954 2.815,7.253 1.08,5.344 -0.656,3.436 -1.139,1.043 0,0"
             style="fill:#d7e3f4;fill-opacity:1;fill-rule:nonzero;stroke:none"
             id="path492" /></g><g
           id="g494"
           transform="translate(178.731,152.9463)"><path
             d="M 0,0 C 1.139,-1.043 3.47,-0.342 5.205,1.567 6.94,3.476 7.424,5.868 6.285,6.911 5.512,7.618 3.924,9.071 3.924,9.071 L -2.36,2.16 c 0,0 1.221,-1.117 2.36,-2.16"
             style="fill:#b2cded;fill-opacity:1;fill-rule:nonzero;stroke:none"
             id="path496" /></g><g
           id="g498"
           transform="translate(176.52,154.9697)"><path
             d="M 0,0 C 1.138,-1.042 3.469,-0.341 5.205,1.568 6.94,3.477 7.423,5.869 6.284,6.912 5.146,7.954 2.815,7.253 1.08,5.344 -0.656,3.436 -1.14,1.043 0,0"
             style="fill:#d7e3f4;fill-opacity:1;fill-rule:nonzero;stroke:none"
             id="path500" /></g><g
           id="g502"><g
             id="g504" /><g
             id="g516"><g
               clip-path="url(#clipPath508)"
               opacity="0.449997"
               id="g514"><g
                 transform="translate(242.9551,127.2412)"
                 id="g512"><path
                   d="M 0,0 6.603,8.555 H -93.94 L -101.495,0 Z"
                   style="fill:#d7e3f4;fill-opacity:1;fill-rule:nonzero;stroke:none"
                   id="path510" /></g></g></g></g><g
           id="g518"
           transform="translate(354.147,186.7217)"><path
             d="m 0,0 v -106.335 c 0,-5.143 -4.169,-9.312 -9.313,-9.312 h -59.154 c -5.143,0 -9.312,4.169 -9.312,9.312 v 3.049"
             style="fill:none;stroke:#648acc;stroke-width:1;stroke-linecap:butt;stroke-linejoin:miter;stroke-miterlimit:10;stroke-dasharray:none;stroke-opacity:1"
             id="path520" /></g><g
           id="g522"
           transform="translate(368.8071,181.8418)"><path
             d="m 0,0 v -121.485 c 0,-5.245 -4.252,-9.497 -9.497,-9.497 h -94.048 c -5.143,0 -9.312,4.169 -9.312,9.312 v 23.264"
             style="fill:none;stroke:#648acc;stroke-width:1;stroke-linecap:butt;stroke-linejoin:miter;stroke-miterlimit:10;stroke-dasharray:none;stroke-opacity:1"
             id="path524" /></g><g
           id="g526"
           transform="translate(395.4189,183.876)"><path
             d="m 0,0 v -70.479 c 0,-5.143 4.169,-9.312 9.313,-9.312 h 73.459 c 5.143,0 9.313,4.169 9.313,9.312 V 50.259 c 0,5.143 4.169,9.312 9.312,9.312 h 30.29"
             style="fill:none;stroke:#648acc;stroke-width:1;stroke-linecap:butt;stroke-linejoin:miter;stroke-miterlimit:10;stroke-dasharray:none;stroke-opacity:1"
             id="path528" /></g><g
           id="g530"
           transform="translate(383.6094,181.8418)"><path
             d="m 0,0 v -98.782 c 0,-5.143 4.17,-9.313 9.313,-9.313 h 134.871 c 5.143,0 9.312,4.17 9.312,9.313 V 38.55"
             style="fill:none;stroke:#648acc;stroke-width:1;stroke-linecap:butt;stroke-linejoin:miter;stroke-miterlimit:10;stroke-dasharray:none;stroke-opacity:1"
             id="path532" /></g><g
           id="g534"
           transform="translate(287.3745,336.416)"><path
             d="m 0,0 c 0,48.394 39.231,87.625 87.625,87.625 48.395,0 87.626,-39.231 87.626,-87.625 0,-19.291 -6.239,-37.122 -16.801,-51.596 -12.508,-18.848 -45.007,-40.128 -45.007,-52.877 v -14.565 c 0,-2.907 -2.358,-5.264 -5.265,-5.264 H 94.096 81.155 67.073 c -2.907,0 -5.264,2.357 -5.264,5.264 v 14.565 c 0,12.749 -32.5,34.029 -45.007,52.877 C 6.239,-37.122 0,-19.291 0,0"
             style="fill:#fdd305;fill-opacity:1;fill-rule:nonzero;stroke:none"
             id="path536" /></g><g
           id="g538"
           transform="translate(335.5132,333.5864)"><path
             d="m 0,0 c -2.023,0 -3.905,-0.499 -5.561,-1.489 -4.452,-2.663 -6.971,-10.256 -5.858,-17.662 1.992,-13.252 13.135,-27.288 38.031,-30.877 -1.42,14.629 -3.851,28.017 -7.92,35.966 C 15.22,-7.278 9.693,-2.237 3.908,-0.578 2.564,-0.192 1.254,0 0,0 m 78.974,0 c -1.255,0 -2.564,-0.192 -3.908,-0.578 -5.785,-1.659 -11.313,-6.7 -14.785,-13.484 -4.069,-7.949 -6.5,-21.337 -7.92,-35.966 24.896,3.589 36.04,17.625 38.032,30.877 1.113,7.406 -1.405,14.999 -5.858,17.662 C 82.878,-0.499 80.998,0 78.974,0 M 49.437,-120.021 c -0.103,2.196 -1.671,37.372 1.146,68.198 -3.452,-0.408 -7.147,-0.626 -11.096,-0.626 -3.95,0 -7.644,0.218 -11.095,0.626 2.816,-30.826 1.247,-66.002 1.144,-68.198 l -1.545,0.073 c 0.025,0.541 1.65,36.924 -1.229,68.335 -25.99,3.614 -37.622,18.337 -39.711,32.233 -1.22,8.121 1.553,16.203 6.595,19.218 3.059,1.829 6.755,2.2 10.689,1.071 6.189,-1.775 12.071,-7.108 15.735,-14.265 4.23,-8.266 6.731,-21.99 8.173,-36.889 3.486,-0.429 7.229,-0.657 11.244,-0.657 4.015,0 7.759,0.228 11.243,0.657 1.442,14.899 3.943,28.623 8.175,36.889 3.663,7.157 9.545,12.49 15.734,14.265 3.934,1.129 7.631,0.758 10.69,-1.071 5.041,-3.015 7.815,-11.097 6.593,-19.218 -2.089,-13.896 -13.721,-28.619 -39.711,-32.233 -2.878,-31.411 -1.253,-67.794 -1.228,-68.335 z"
             style="fill:#ffffff;fill-opacity:1;fill-rule:nonzero;stroke:none"
             id="path540" /></g><g
           id="g542"
           transform="translate(448.0371,331.3882)"><path
             d="m 0,0 c -2.776,0 -5.027,2.251 -5.027,5.028 0,31.179 -21.08,58.292 -51.262,65.933 -2.692,0.681 -4.322,3.416 -3.641,6.108 0.682,2.692 3.415,4.324 6.108,3.639 C -19.172,71.937 5.027,40.815 5.027,5.028 5.027,2.251 2.776,0 0,0"
             style="fill:#ffee99;fill-opacity:1;fill-rule:nonzero;stroke:none"
             id="path544" /></g><g
           id="g546"
           transform="translate(373.3115,409.5908)"><path
             d="m 0,0 c 0,-2.776 2.251,-5.028 5.027,-5.028 2.778,0 5.028,2.252 5.028,5.028 0,2.777 -2.25,5.027 -5.028,5.027 C 2.251,5.027 0,2.777 0,0"
             style="fill:#ffee99;fill-opacity:1;fill-rule:nonzero;stroke:none"
             id="path548" /></g><g
           id="g550"><g
             id="g552" /><g
             id="g564"><g
               clip-path="url(#clipPath556)"
               opacity="0.550003"
               id="g562"><g
                 transform="translate(462.457,331.2344)"
                 id="g560"><path
                   d="m 0,0 c -4.836,-35.93 -33.845,-73.127 -87.457,-73.127 -53.612,0 -81.538,38.938 -87.457,73.127 1.01,-17.296 7.024,-33.247 16.633,-46.415 12.508,-18.847 45.008,-40.127 45.008,-52.876 v -14.565 c 0,-2.908 2.356,-5.264 5.263,-5.264 h 14.083 12.941 14.082 c 2.907,0 5.264,2.356 5.264,5.264 v 14.565 c 0,12.749 32.499,34.029 45.007,52.876 C -7.023,-33.247 -1.011,-17.296 0,0"
                   style="fill:#ffc043;fill-opacity:1;fill-rule:nonzero;stroke:none"
                   id="path558" /></g></g></g></g><g
           id="g566"
           transform="translate(402.8877,225.7236)"><path
             d="m 0,0 h -55.775 v -26.582 c 0,-4.341 1.235,-8.592 3.562,-12.257 4.397,-6.928 12.032,-11.124 20.237,-11.124 h 8.177 c 8.205,0 15.84,4.196 20.237,11.124 2.327,3.665 3.562,7.916 3.562,12.257 z"
             style="fill:#28364c;fill-opacity:1;fill-rule:nonzero;stroke:none"
             id="path568" /></g><g
           id="g570"
           transform="translate(347.1079,207.7979)"><path
             d="m 0,0 c 0.16,-0.005 0.32,0 0.483,0.018 l 55.775,5.781 c 1.904,0.197 3.233,1.909 2.969,3.822 -0.264,1.913 -2.024,3.306 -3.925,3.107 L -0.473,6.945 C -2.376,6.748 -3.707,5.037 -3.442,3.124 -3.202,1.374 -1.71,0.061 0,0"
             style="fill:#475577;fill-opacity:1;fill-rule:nonzero;stroke:none"
             id="path572" /></g><g
           id="g574"
           transform="translate(347.1079,195.6318)"><path
             d="m 0,0 c 0.16,-0.005 0.32,0 0.483,0.018 l 55.775,5.781 c 1.904,0.197 3.233,1.908 2.969,3.822 -0.264,1.913 -2.024,3.303 -3.925,3.107 L -0.473,6.945 C -2.376,6.748 -3.707,5.037 -3.442,3.124 -3.202,1.373 -1.71,0.061 0,0"
             style="fill:#475577;fill-opacity:1;fill-rule:nonzero;stroke:none"
             id="path576" /></g><g
           id="g578"
           transform="translate(349.3359,183.5898)"><path
             d="M 0,0 C 0.159,-0.006 0.32,0 0.482,0.017 L 53.35,5.498 c 1.904,0.197 3.233,1.908 2.969,3.821 -0.263,1.913 -2.027,3.306 -3.925,3.107 L -0.474,6.945 C -2.377,6.748 -3.708,5.037 -3.443,3.123 -3.202,1.373 -1.71,0.06 0,0"
             style="fill:#475577;fill-opacity:1;fill-rule:nonzero;stroke:none"
             id="path580" /></g><g
           id="g582"
           transform="translate(375,461.2407)"><path
             d="M 0,0 V -27.536"
             style="fill:#ffcd5c;fill-opacity:1;fill-rule:nonzero;stroke:#ffc043;stroke-width:3;stroke-linecap:round;stroke-linejoin:round;stroke-miterlimit:10;stroke-dasharray:none;stroke-opacity:1"
             id="path584" /></g><g
           id="g586"
           transform="translate(424.6572,450.2734)"><path
             d="M 0,0 -11.121,-25.19"
             style="fill:#ffcd5c;fill-opacity:1;fill-rule:nonzero;stroke:#ffc043;stroke-width:3;stroke-linecap:round;stroke-linejoin:round;stroke-miterlimit:10;stroke-dasharray:none;stroke-opacity:1"
             id="path588" /></g><g
           id="g590"
           transform="translate(466.5098,419.8071)"><path
             d="M 0,0 -20.347,-18.553"
             style="fill:#ffcd5c;fill-opacity:1;fill-rule:nonzero;stroke:#ffc043;stroke-width:3;stroke-linecap:round;stroke-linejoin:round;stroke-miterlimit:10;stroke-dasharray:none;stroke-opacity:1"
             id="path592" /></g><g
           id="g594"
           transform="translate(325.3433,450.2734)"><path
             d="M 0,0 11.121,-25.19"
             style="fill:#ffcd5c;fill-opacity:1;fill-rule:nonzero;stroke:#ffc043;stroke-width:3;stroke-linecap:round;stroke-linejoin:round;stroke-miterlimit:10;stroke-dasharray:none;stroke-opacity:1"
             id="path596" /></g><g
           id="g598"
           transform="translate(283.4897,419.8071)"><path
             d="M 0,0 20.347,-18.553"
             style="fill:#ffcd5c;fill-opacity:1;fill-rule:nonzero;stroke:#ffc043;stroke-width:3;stroke-linecap:round;stroke-linejoin:round;stroke-miterlimit:10;stroke-dasharray:none;stroke-opacity:1"
             id="path600" /></g><g
           id="g602"
           transform="translate(257.8462,83.293)"><path
             d="m 0,0 c 0,-1.047 -0.849,-1.896 -1.896,-1.896 -1.048,0 -1.897,0.849 -1.897,1.896 0,1.048 0.849,1.897 1.897,1.897 C -0.849,1.897 0,1.048 0,0"
             style="fill:#648acc;fill-opacity:1;fill-rule:nonzero;stroke:none"
             id="path604" /></g><g
           id="g606"
           transform="translate(278.2646,83.293)"><path
             d="m 0,0 c 0,-1.047 -0.849,-1.896 -1.897,-1.896 -1.047,0 -1.897,0.849 -1.897,1.896 0,1.048 0.85,1.897 1.897,1.897 C -0.849,1.897 0,1.048 0,0"
             style="fill:#648acc;fill-opacity:1;fill-rule:nonzero;stroke:none"
             id="path608" /></g><g
           id="g610"
           transform="translate(539.0029,220.3916)"><path
             d="m 0,0 c 0,-1.048 -0.85,-1.897 -1.897,-1.897 -1.048,0 -1.897,0.849 -1.897,1.897 0,1.047 0.849,1.896 1.897,1.896 C -0.85,1.896 0,1.047 0,0"
             style="fill:#648acc;fill-opacity:1;fill-rule:nonzero;stroke:none"
             id="path612" /></g><g
           id="g614"
           transform="translate(549.6904,220.3916)"><path
             d="m 0,0 c 0,-1.048 -0.85,-1.897 -1.897,-1.897 -1.047,0 -1.897,0.849 -1.897,1.897 0,1.047 0.85,1.896 1.897,1.896 C -0.85,1.896 0,1.047 0,0"
             style="fill:#648acc;fill-opacity:1;fill-rule:nonzero;stroke:none"
             id="path616" /></g><g
           id="g618"
           transform="translate(560.3779,220.3916)"><path
             d="m 0,0 c 0,-1.048 -0.849,-1.897 -1.896,-1.897 -1.048,0 -1.898,0.849 -1.898,1.897 0,1.047 0.85,1.896 1.898,1.896 C -0.849,1.896 0,1.047 0,0"
             style="fill:#648acc;fill-opacity:1;fill-rule:nonzero;stroke:none"
             id="path620" /></g><g
           id="g622"
           transform="translate(529.0029,243.4473)"><path
             d="m 0,0 c 0,-1.048 -0.85,-1.896 -1.897,-1.896 -1.048,0 -1.897,0.848 -1.897,1.896 0,1.048 0.849,1.897 1.897,1.897 C -0.85,1.897 0,1.048 0,0"
             style="fill:#648acc;fill-opacity:1;fill-rule:nonzero;stroke:none"
             id="path624" /></g><g
           id="g626"
           transform="translate(429.543,132.3965)"><path
             d="m 0,0 c 0,-21.613 17.521,-39.134 39.134,-39.134 21.613,0 39.135,17.521 39.135,39.134 0,21.613 -17.522,39.135 -39.135,39.135 C 17.521,39.135 0,21.613 0,0"
             style="fill:#f46072;fill-opacity:1;fill-rule:nonzero;stroke:none"
             id="path628" /></g><g
           id="g630"
           transform="translate(440.3652,132.3965)"><path
             d="m 0,0 c 0,-15.636 12.676,-28.312 28.312,-28.312 15.636,0 28.312,12.676 28.312,28.312 0,15.637 -12.676,28.312 -28.312,28.312 C 12.676,28.312 0,15.637 0,0"
             style="fill:#ffffff;fill-opacity:1;fill-rule:nonzero;stroke:none"
             id="path632" /></g><g
           id="g634"
           transform="translate(449.2305,132.3965)"><path
             d="m 0,0 c 0,-10.74 8.706,-19.446 19.446,-19.446 10.741,0 19.448,8.706 19.448,19.446 0,10.74 -8.707,19.447 -19.448,19.447 C 8.706,19.447 0,10.74 0,0"
             style="fill:#f46072;fill-opacity:1;fill-rule:nonzero;stroke:none"
             id="path636" /></g><g
           id="g638"
           transform="translate(458.4893,132.3965)"><path
             d="m 0,0 c 0,-5.626 4.562,-10.188 10.188,-10.188 5.626,0 10.187,4.562 10.187,10.188 0,5.627 -4.561,10.188 -10.187,10.188 C 4.562,10.188 0,5.627 0,0"
             style="fill:#ffffff;fill-opacity:1;fill-rule:nonzero;stroke:none"
             id="path640" /></g><g
           id="g642"
           transform="translate(467.1006,130.8203)"><path
             d="M 0,0 H 6.396 L 0,6.396 Z"
             style="fill:#0c3656;fill-opacity:1;fill-rule:nonzero;stroke:none"
             id="path644" /></g><g
           id="g646"
           transform="translate(508.5801,172.2988)"><path
             d="M 0,0 H 7.319 V 1.846 H 1.845 V 7.32 H 0 Z"
             style="fill:#0c3656;fill-opacity:1;fill-rule:nonzero;stroke:none"
             id="path648" /></g><g
           id="g650"
           transform="translate(511.9307,175.6494)"><path
             d="M 0,0 H 7.319 V 1.846 H 1.845 V 7.319 H 0 Z"
             style="fill:#0c3656;fill-opacity:1;fill-rule:nonzero;stroke:none"
             id="path652" /></g><g
           id="g654"
           transform="translate(469.5479,131.9639)"><path
             d="M 0,0 44.261,44.26 42.956,45.564 -1.305,1.304 Z"
             style="fill:#0c3656;fill-opacity:1;fill-rule:nonzero;stroke:none"
             id="path656" /></g><g
           id="g658"
           transform="translate(167.7061,202.2227)"><path
             d="m 0,0 -4.827,-9.167 c 0,0 -3.293,0 -7.836,2.243 -4.511,2.227 -5.825,5.294 -5.825,5.294 l 8.161,10.796"
             style="fill:#f886bc;fill-opacity:1;fill-rule:nonzero;stroke:none"
             id="path660" /></g><g
           id="g662"
           transform="translate(177.9687,219.5371)"><path
             d="m 0,0 c 4.489,-2.646 -2.926,-19.396 -6.977,-20.457 -4.051,-1.06 -12.094,6.855 -14.492,13.561 -2.397,6.707 5.317,10.374 9.852,11.737 C -7.082,6.203 0,0 0,0"
             style="fill:#f886bc;fill-opacity:1;fill-rule:nonzero;stroke:none"
             id="path664" /></g><g
           id="g666"
           transform="translate(174.6387,211.417)"><path
             d="m 0,0 c -0.153,-0.267 -0.295,-0.541 -0.426,-0.819 -0.16,-0.343 0.349,-0.644 0.511,-0.299 0.142,0.301 0.271,0.608 0.386,0.919 C 0.575,0.079 0.143,0.248 0,0"
             style="fill:#00276f;fill-opacity:1;fill-rule:nonzero;stroke:none"
             id="path668" /></g><g
           id="g670"
           transform="translate(177.125,213.0498)"><path
             d="M 0,0 C 0,0 -0.985,1.477 -3.577,0.96"
             style="fill:none;stroke:#00276f;stroke-width:0.75;stroke-linecap:round;stroke-linejoin:round;stroke-miterlimit:10;stroke-dasharray:none;stroke-opacity:1"
             id="path672" /></g><g
           id="g674"
           transform="translate(170.6924,204.8984)"><path
             d="m 0,0 2.856,-2.039 c 0,0 -1.117,-2.159 -2.136,-1.319 C -0.3,-2.519 0,0 0,0"
             style="fill:#ffffff;fill-opacity:1;fill-rule:nonzero;stroke:none"
             id="path676" /></g><g
           id="g678"
           transform="translate(182,215.8672)"><path
             d="m 0,0 c -2.039,0.656 -4.28,1.897 -5.824,2.673 -2.063,-0.427 -4.207,-2.362 -4.262,-4.554 -0.012,-0.493 -0.062,-1.164 -0.551,-1.232 -0.337,-0.048 -0.615,0.282 -0.71,0.609 -0.094,0.327 -0.082,0.684 -0.216,0.996 -0.272,0.635 -1.108,0.89 -1.762,0.665 -0.653,-0.224 -1.122,-0.815 -1.389,-1.452 -0.682,-1.629 -1.29,-3.6 0.265,-4.967 0.242,-0.212 0.525,-0.395 0.681,-0.677 0.338,-0.613 -0.061,-1.357 -0.46,-1.93 -1.237,-1.778 -3.097,-3.776 -6.745,-3.776 -2.565,0 -6.826,3.383 -7.107,5.073 -0.025,0.151 -2.48,10.507 2.076,17.093 2.443,3.533 6.745,6.106 11.231,5.73 2.771,-0.231 5.19,-1.864 6.547,-2.921 C -0.745,9.955 0.859,2.245 0,0"
             style="fill:#212237;fill-opacity:1;fill-rule:nonzero;stroke:none"
             id="path680" /></g><g
           id="g682"
           transform="translate(177.6792,209.752)"><path
             d="m 0,0 c 0,0 0.662,-5.022 -0.328,-5.571 -0.99,-0.55 -3.079,0.881 -3.079,0.881"
             style="fill:#f886bc;fill-opacity:1;fill-rule:nonzero;stroke:none"
             id="path684" /></g><g
           id="g686"
           transform="translate(179.7402,73.7793)"><path
             d="m 0,0 -3.662,-23.644 -0.19,-7.119 27.915,0.143 c 0.682,0.003 1.231,0.558 1.228,1.24 -0.003,0.511 -0.32,0.967 -0.797,1.148 l -12.039,5.536 4.761,24.56"
             style="fill:#f886bc;fill-opacity:1;fill-rule:nonzero;stroke:none"
             id="path688" /></g><g
           id="g690"
           transform="translate(206.252,43.459)"><path
             d="M 0,0 C -0.285,0.895 -0.809,1.898 -1.337,2.126 L -14.102,7.624 C -21.139,4.771 -30.247,6.952 -30.247,6.952 l -1.624,-9.611 c 10e-4,-0.319 0.261,-0.574 0.579,-0.573 l 31.078,0.159 C 0.412,-3.07 0.009,-0.027 0,0"
             style="fill:#4868ef;fill-opacity:1;fill-rule:nonzero;stroke:none"
             id="path692" /></g><g
           id="g694"
           transform="translate(194.9126,50.5322)"><path
             d="M 0,0 C -0.715,-0.932 -1.32,-1.948 -1.8,-3.021"
             style="fill:none;stroke:#273b7a;stroke-width:0.75;stroke-linecap:butt;stroke-linejoin:miter;stroke-miterlimit:10;stroke-dasharray:none;stroke-opacity:1"
             id="path696" /></g><g
           id="g698"
           transform="translate(196.52,49.5723)"><path
             d="M 0,0 C -0.741,-1.026 -1.037,-1.619 -1.479,-2.57"
             style="fill:none;stroke:#273b7a;stroke-width:0.75;stroke-linecap:butt;stroke-linejoin:miter;stroke-miterlimit:10;stroke-dasharray:none;stroke-opacity:1"
             id="path700" /></g><g
           id="g702"
           transform="translate(197.8784,48.8701)"><path
             d="M 0,0 C -0.503,-0.676 -0.997,-1.611 -1.388,-2.357"
             style="fill:none;stroke:#273b7a;stroke-width:0.75;stroke-linecap:butt;stroke-linejoin:miter;stroke-miterlimit:10;stroke-dasharray:none;stroke-opacity:1"
             id="path704" /></g><g
           id="g706"
           transform="translate(174.5449,42.3018)"><path
             d="M 0,0 31.838,0.163"
             style="fill:none;stroke:#273b7a;stroke-width:0.75;stroke-linecap:butt;stroke-linejoin:miter;stroke-miterlimit:10;stroke-dasharray:none;stroke-opacity:1"
             id="path708" /></g><g
           id="g710"
           transform="translate(175.4292,47.002)"><path
             d="M 0,0 C 0,0 7.479,-0.151 8.123,-4.658"
             style="fill:none;stroke:#273b7a;stroke-width:0.75;stroke-linecap:butt;stroke-linejoin:miter;stroke-miterlimit:10;stroke-dasharray:none;stroke-opacity:1"
             id="path712" /></g><g
           id="g714"
           transform="translate(202.2988,46.7119)"><path
             d="M 0,0 C 0,0 -2.062,-2.931 -2.469,-4.282"
             style="fill:none;stroke:#273b7a;stroke-width:0.75;stroke-linecap:butt;stroke-linejoin:miter;stroke-miterlimit:10;stroke-dasharray:none;stroke-opacity:1"
             id="path716" /></g><g
           id="g718"
           transform="translate(93.0889,67.583)"><path
             d="m 0,0 -23.292,2.774 -7.119,0.192 0.142,-27.915 c 0.004,-0.682 0.56,-1.232 1.241,-1.228 0.51,0.003 0.967,0.32 1.148,0.797 l 5.536,12.039 24.137,-2.718"
             style="fill:#f886bc;fill-opacity:1;fill-rule:nonzero;stroke:none"
             id="path720" /></g><g
           id="g722"
           transform="translate(63.1206,40.1846)"><path
             d="M 0,0 C 0.894,0.285 1.898,0.81 2.126,1.337 L 7.624,14.103 C 4.771,21.139 6.951,30.247 6.951,30.247 L -2.66,31.871 C -2.978,31.87 -3.234,31.61 -3.232,31.292 L -3.074,0.214 C -3.07,-0.411 -0.028,-0.009 0,0"
             style="fill:#4868ef;fill-opacity:1;fill-rule:nonzero;stroke:none"
             id="path724" /></g><g
           id="g726"
           transform="translate(70.1938,51.5244)"><path
             d="M 0,0 C -0.932,0.715 -1.949,1.32 -3.022,1.799"
             style="fill:none;stroke:#273b7a;stroke-width:0.75;stroke-linecap:butt;stroke-linejoin:miter;stroke-miterlimit:10;stroke-dasharray:none;stroke-opacity:1"
             id="path728" /></g><g
           id="g730"
           transform="translate(69.2329,49.917)"><path
             d="M 0,0 C -1.025,0.741 -1.618,1.037 -2.569,1.479"
             style="fill:none;stroke:#273b7a;stroke-width:0.75;stroke-linecap:butt;stroke-linejoin:miter;stroke-miterlimit:10;stroke-dasharray:none;stroke-opacity:1"
             id="path732" /></g><g
           id="g734"
           transform="translate(68.5317,48.5586)"><path
             d="M 0,0 C -0.676,0.503 -1.611,0.996 -2.358,1.387"
             style="fill:none;stroke:#273b7a;stroke-width:0.75;stroke-linecap:butt;stroke-linejoin:miter;stroke-miterlimit:10;stroke-dasharray:none;stroke-opacity:1"
             id="path736" /></g><g
           id="g738"
           transform="translate(61.9629,71.8916)"><path
             d="M 0,0 0.163,-31.839"
             style="fill:none;stroke:#273b7a;stroke-width:0.75;stroke-linecap:butt;stroke-linejoin:miter;stroke-miterlimit:10;stroke-dasharray:none;stroke-opacity:1"
             id="path740" /></g><g
           id="g742"
           transform="translate(66.6636,71.0078)"><path
             d="M 0,0 C 0,0 -0.152,-7.479 -4.658,-8.123"
             style="fill:none;stroke:#273b7a;stroke-width:0.75;stroke-linecap:butt;stroke-linejoin:miter;stroke-miterlimit:10;stroke-dasharray:none;stroke-opacity:1"
             id="path744" /></g><g
           id="g746"
           transform="translate(66.373,44.1377)"><path
             d="M 0,0 C 0,0 -2.931,2.063 -4.282,2.469"
             style="fill:none;stroke:#273b7a;stroke-width:0.75;stroke-linecap:butt;stroke-linejoin:miter;stroke-miterlimit:10;stroke-dasharray:none;stroke-opacity:1"
             id="path748" /></g><g
           id="g750"
           transform="translate(106.9429,132.4824)"><path
             d="m 0,0 c -5.005,-13.383 3.165,-32.81 3.165,-32.81 l 4.305,-31.292 -40.842,1.798 0.404,-27.162 c 0,0 43.808,-3.117 54.405,-3.117 10.596,0 14.692,2.372 17.802,8.58 4.633,9.25 -2.026,60.389 -2.026,61.236 l -7.271,32.849"
             style="fill:#22252d;fill-opacity:1;fill-rule:nonzero;stroke:none"
             id="path752" /></g><g
           id="g754"
           transform="translate(78.4727,69.9629)"><path
             d="M 0,0 0.307,-27.282"
             style="fill:none;stroke:#474b51;stroke-width:0.75;stroke-linecap:butt;stroke-linejoin:miter;stroke-miterlimit:10;stroke-dasharray:none;stroke-opacity:1"
             id="path756" /></g><g
           id="g758"
           transform="translate(121.1099,125.2471)"><path
             d="m 0,0 c 0,0 -4.636,-23.693 18.9,-28.784 10.518,-2.276 37.263,-3.023 37.263,-3.023 L 51.595,-68.41 h 26.707 c 0,0 5.532,27.579 7.198,46.026 1.108,12.273 -4.17,17.761 -14.093,18.991 -8.4,1.041 -33.659,2.685 -33.659,2.685 l -4.247,5.33"
             style="fill:#22252d;fill-opacity:1;fill-rule:nonzero;stroke:none"
             id="path760" /></g><g
           id="g762"
           transform="translate(145.2852,95.6152)"><path
             d="M 0,0 C 0,0 -19.807,-0.061 -24.546,22.137"
             style="fill:none;stroke:#474b51;stroke-width:0.75;stroke-linecap:butt;stroke-linejoin:miter;stroke-miterlimit:10;stroke-dasharray:none;stroke-opacity:1"
             id="path764" /></g><g
           id="g766"
           transform="translate(131.1914,119.8447)"><path
             d="M 0,0 C 0,0 5.36,-1.026 12.341,-0.568"
             style="fill:none;stroke:#474b51;stroke-width:0.75;stroke-linecap:butt;stroke-linejoin:miter;stroke-miterlimit:10;stroke-dasharray:none;stroke-opacity:1"
             id="path768" /></g><g
           id="g770"
           transform="translate(105.3252,122.9834)"><path
             d="M 0,0 C 0,0 5.281,-1.513 8.712,-1.479"
             style="fill:none;stroke:#474b51;stroke-width:0.75;stroke-linecap:butt;stroke-linejoin:miter;stroke-miterlimit:10;stroke-dasharray:none;stroke-opacity:1"
             id="path772" /></g><g
           id="g774"
           transform="translate(174.4697,61.6016)"><path
             d="M 0,0 H 25.929"
             style="fill:none;stroke:#474b51;stroke-width:0.75;stroke-linecap:butt;stroke-linejoin:miter;stroke-miterlimit:10;stroke-dasharray:none;stroke-opacity:1"
             id="path776" /></g><path
           d="m 229.918,139.403 h -2.126 v 23.235 h 2.126 z"
           style="fill:#648acc;fill-opacity:1;fill-rule:nonzero;stroke:none"
           id="path778" /><g
           id="g780"
           transform="translate(232.7744,164.9912)"><path
             d="m 0,0 c 0,-2.164 -1.754,-3.919 -3.919,-3.919 -2.164,0 -3.918,1.755 -3.918,3.919 0,2.164 1.754,3.919 3.918,3.919 C -1.754,3.919 0,2.164 0,0"
             style="fill:#648acc;fill-opacity:1;fill-rule:nonzero;stroke:none"
             id="path782" /></g><g
           id="g784"
           transform="translate(209.1885,158.3203)"><path
             d="m 0,0 7.884,-0.582 c 0,0 6.061,2.045 8.474,2.097 1.48,0.032 2.246,-0.749 2.246,-0.749 v -2.382 c 0,-1.587 2.126,-2.286 2.126,-1.209 v 1.31 c 0.024,-0.088 4.365,-2.15 1.822,-4.114 1.194,-0.247 1.828,-1.925 -0.438,-3.075 0.719,-0.491 1.551,-1.852 -0.11,-2.943 0.737,-1.121 -0.762,-2.356 -1.954,-2.614 -2.254,-0.487 -20.29,-0.109 -20.29,-0.109"
             style="fill:#f886bc;fill-opacity:1;fill-rule:nonzero;stroke:none"
             id="path786" /></g><g
           id="g788"
           transform="translate(163.1816,193.916)"><path
             d="m 0,0 c 12.951,-17.915 5.995,-23.722 -3.313,-69.423 -31.09,0 -54.884,5.376 -54.884,5.376 0,0 7.404,23.984 21.126,50.676 6.544,12.727 17.422,19.064 23.578,20.682"
             style="fill:#4868ef;fill-opacity:1;fill-rule:nonzero;stroke:none"
             id="path790" /></g><g
           id="g792"
           transform="translate(143.5322,173.7734)"><path
             d="m 0,0 c 0,0 20.013,-31.345 29.524,-32.734 15.101,-2.207 40.073,-1.588 40.073,-1.588 l 1.489,22.051 c 0,0 -32.099,1.623 -33.424,2.375 -4.3,2.446 -18.013,30.039 -18.013,30.039"
             style="fill:#4868ef;fill-opacity:1;fill-rule:nonzero;stroke:none"
             id="path794" /></g><g
           id="g796"
           transform="translate(164.8418,146.7578)"><path
             d="M 0,0 C 0,0 -11.741,9.746 -19.557,24.88"
             style="fill:none;stroke:#273b7a;stroke-width:0.75;stroke-linecap:butt;stroke-linejoin:miter;stroke-miterlimit:10;stroke-dasharray:none;stroke-opacity:1"
             id="path798" /></g><g
           id="g800"
           transform="translate(209.9897,161.7451)"><path
             d="M 0,0 -1.891,-22.374"
             style="fill:none;stroke:#273b7a;stroke-width:0.75;stroke-linecap:butt;stroke-linejoin:miter;stroke-miterlimit:10;stroke-dasharray:none;stroke-opacity:1"
             id="path802" /></g><g
           id="g804"
           transform="translate(634.6855,196.3486)"><path
             d="m 0,0 c -0.485,-4.283 -3.926,-16.462 -3.205,-16.971 0.721,-0.509 1.987,3.758 2.502,3.23 0.513,-0.53 -0.991,-7.228 -0.136,-7.544 1.16,-0.43 2.334,6.514 2.334,6.514 0,0 -0.906,-7.669 0.207,-7.75 0.79,-0.058 1.75,5.762 2.397,7.941 -0.401,-2.449 -0.578,-6.496 0.243,-6.539 0.813,-0.042 1.552,3.907 2.279,6.902 -0.279,-1.912 -0.6,-5.418 0.156,-5.492 0.754,-0.075 3.22,9.402 5.19,18.416"
             style="fill:#f886bc;fill-opacity:1;fill-rule:nonzero;stroke:none"
             id="path806" /></g><g
           id="g808"
           transform="translate(648.6279,255.1074)"><path
             d="M 0,0 C 0,0 6.932,-12.313 7.933,-19.869 10.398,-38.485 -5.048,-70.02 -5.048,-70.02 c 0,0 -11.224,3.062 -11.224,4.471 0,1.408 7.823,34.543 7.823,34.543 l -11.22,25.899"
             style="fill:#f886bc;fill-opacity:1;fill-rule:nonzero;stroke:none"
             id="path810" /></g><g
           id="g812"
           transform="translate(614.9248,295.5376)"><path
             d="m 0,0 1.506,-13.882 c 0,0 -8.323,-7.057 -15.689,0.849 l 0.901,9.137 z"
             style="fill:#f886bc;fill-opacity:1;fill-rule:nonzero;stroke:none"
             id="path814" /></g><g
           id="g816"
           transform="translate(603.3125,309.4453)"><path
             d="m 0,0 c 0,0 -9.011,-12.409 -5.33,-17.059 2.716,-3.432 9.841,-3.822 12.042,-2.473 0.474,2.541 6.313,10.94 5.377,12.809 C 8.511,0.419 0,0 0,0"
             style="fill:#f886bc;fill-opacity:1;fill-rule:nonzero;stroke:none"
             id="path818" /></g><g
           id="g820"
           transform="translate(617.3369,307.2988)"><path
             d="m 0,0 c -0.291,4.691 -4.917,6.064 -13.795,5.535 -1.188,-0.071 -3.304,0.736 -3.853,-0.32 -0.722,-1.389 -0.85,-4.198 0.544,-5.463 0.931,-0.844 1.554,-1.026 2.778,-1.312 1.609,-0.376 3.248,-1.908 2.392,-3.593 -0.224,-0.441 -0.755,-1.19 -0.42,-1.554 0.171,-0.184 0.744,-0.387 0.964,-0.505 0.64,-0.342 0.599,-1.313 0.202,-1.919 -0.399,-0.605 -0.22,-1.277 -0.622,-1.881 -0.949,-1.43 0.177,-4.066 1.654,-4.941 1.306,-0.774 5.592,-2.066 8.727,-0.439 2.721,1.41 4.355,5.248 4.377,12.15 C 2.956,-1.596 0.988,0.18 0,0"
             style="fill:#212237;fill-opacity:1;fill-rule:nonzero;stroke:none"
             id="path822" /></g><g
           id="g824"
           transform="translate(604.293,300.2119)"><path
             d="M 0,0 C 1.464,1.855 2.648,1.56 3.295,0.542 4.157,-0.817 2.428,-3.64 1.623,-4.122 -0.009,-5.099 -1.33,-4.996 -1.456,-3.671"
             style="fill:#f886bc;fill-opacity:1;fill-rule:nonzero;stroke:none"
             id="path826" /></g><g
           id="g828"
           transform="translate(600.6836,303.0527)"><path
             d="m 0,0 c -0.419,-0.349 -0.811,-0.981 -0.58,-1.446 0.065,-0.131 0.192,-0.194 0.336,-0.18 C 0.695,-1.534 0.874,0.728 0,0"
             style="fill:#28364c;fill-opacity:1;fill-rule:nonzero;stroke:none"
             id="path830" /></g><g
           id="g832"
           transform="translate(600.8008,304.7734)"><path
             d="M 0,0 C 0.586,-0.208 1.536,-0.74 1.883,-1.48"
             style="fill:none;stroke:#28364c;stroke-width:0.75;stroke-linecap:butt;stroke-linejoin:miter;stroke-miterlimit:10;stroke-dasharray:none;stroke-opacity:1"
             id="path834" /></g><g
           id="g836"
           transform="translate(600.7842,296.4351)"><path
             d="m 0,0 -2.058,1.101 c 0,0 -1.351,-2.528 -0.393,-3.061 C -1.392,-2.55 0,0 0,0"
             style="fill:#ffffff;fill-opacity:1;fill-rule:nonzero;stroke:none"
             id="path838" /></g><g
           id="g840"
           transform="translate(569.7461,39.8994)"><path
             d="M 0,0 32.507,0.025 32.505,1.48 -0.001,1.456 Z"
             style="fill:#103bb2;fill-opacity:1;fill-rule:nonzero;stroke:none"
             id="path842" /></g><g
           id="g844"
           transform="translate(597.626,53.3809)"><path
             d="m 0,0 2.813,-0.663 c 0,0 1.076,-3.674 1.489,-6.232 0.413,-2.558 0.323,-5.106 0.323,-5.106 l -32.506,-0.024 c 0,0 0.85,2.817 8.606,7.36 3.056,1.791 4.612,3.839 4.612,3.839 z"
             style="fill:#22252d;fill-opacity:1;fill-rule:nonzero;stroke:none"
             id="path846" /></g><g
           id="g848"
           transform="translate(600.9727,65.0771)"><path
             d="m 0,0 -0.534,-12.359 c 0,0 -1.364,-1.651 -6.885,-1.655 -5.52,-0.004 -10.591,1.492 -10.591,1.492 L -19.1,4.151"
             style="fill:#f2b18f;fill-opacity:1;fill-rule:nonzero;stroke:none"
             id="path850" /></g><g
           id="g852"
           transform="translate(616.0449,39.8994)"><path
             d="M 0,0 32.508,0.025 32.506,1.48 0,1.456 Z"
             style="fill:#103bb2;fill-opacity:1;fill-rule:nonzero;stroke:none"
             id="path854" /></g><g
           id="g856"
           transform="translate(643.9258,53.3809)"><path
             d="m 0,0 2.813,-0.663 c 0,0 1.076,-3.674 1.489,-6.232 0.413,-2.558 0.323,-5.106 0.323,-5.106 l -32.506,-0.024 c 0,0 0.85,2.817 8.606,7.36 3.056,1.791 4.612,3.839 4.612,3.839 z"
             style="fill:#22252d;fill-opacity:1;fill-rule:nonzero;stroke:none"
             id="path858" /></g><g
           id="g860"
           transform="translate(645.6426,65.5811)"><path
             d="m 0,0 1.096,-12.863 c 0,0 -1.365,-1.651 -6.885,-1.655 -5.521,-0.003 -10.591,1.492 -10.591,1.492 l -2.505,16.673"
             style="fill:#f2b18f;fill-opacity:1;fill-rule:nonzero;stroke:none"
             id="path862" /></g><g
           id="g864"
           transform="translate(640.3994,193.4756)"><path
             d="m 0,0 c 0,0 5.07,-10.558 0.996,-30.76 2.073,-45.104 7.467,-105.741 7.467,-105.741 l -30.971,0.109 c 0,0 -6.314,65.18 -10.068,97.663 -4.183,36.181 -6.798,80.492 -6.798,80.492"
             style="fill:#0070e4;fill-opacity:1;fill-rule:nonzero;stroke:none"
             id="path866" /></g><g
           id="g868"
           transform="translate(622.8916,57.084)"><path
             d="M 0,0 C 0,0 -6.314,65.18 -10.068,97.662"
             style="fill:none;stroke:#0b2e6b;stroke-width:0.75;stroke-linecap:butt;stroke-linejoin:miter;stroke-miterlimit:10;stroke-dasharray:none;stroke-opacity:1"
             id="path870" /></g><g
           id="g872"
           transform="translate(581.2598,191.4551)"><path
             d="m 0,0 c 0,0 -3.291,-47.551 -3.291,-70.37 0,-22.821 -1.466,-64.11 -1.466,-64.11 h 31.306 l 11.647,107.932 c 9.539,11.426 8.843,36.22 6.544,45.874 l -31.041,8.476 z"
             style="fill:#0070e4;fill-opacity:1;fill-rule:nonzero;stroke:none"
             id="path874" /></g><g
           id="g876"
           transform="translate(613.0596,105.6396)"><path
             d="m 0,0 6.396,59.268 c 8.001,8.92 8.001,20.18 8.001,20.18"
             style="fill:none;stroke:#0b2e6b;stroke-width:0.75;stroke-linecap:butt;stroke-linejoin:miter;stroke-miterlimit:10;stroke-dasharray:none;stroke-opacity:1"
             id="path878" /></g><g
           id="g880"
           transform="translate(587.7939,196.2305)"><path
             d="M 0,0 -7.409,-139.256"
             style="fill:none;stroke:#0b2e6b;stroke-width:0.75;stroke-linecap:butt;stroke-linejoin:miter;stroke-miterlimit:10;stroke-dasharray:none;stroke-opacity:1"
             id="path882" /></g><g
           id="g884"
           transform="translate(608.3545,183.6826)"><path
             d="M 0,0 15.205,-0.305"
             style="fill:none;stroke:#0b2e6b;stroke-width:0.75;stroke-linecap:butt;stroke-linejoin:miter;stroke-miterlimit:10;stroke-dasharray:none;stroke-opacity:1"
             id="path886" /></g><g
           id="g888"
           transform="translate(634.3975,184.1621)"><path
             d="M 0,0 5.781,0.12"
             style="fill:none;stroke:#0b2e6b;stroke-width:0.75;stroke-linecap:butt;stroke-linejoin:miter;stroke-miterlimit:10;stroke-dasharray:none;stroke-opacity:1"
             id="path890" /></g><g
           id="g892"
           transform="translate(554.8682,263.8862)"><path
             d="m 0,0 c -4.244,4.802 -15.634,23.061 -16.914,22.773 -1.28,-0.288 2.168,-5.939 1.072,-5.979 -1.095,-0.04 -6.989,8.295 -8.192,7.666 -1.629,-0.853 4.865,-9.065 4.865,-9.065 0,0 -2.543,3.488 -3.742,2.34 -0.85,-0.814 -0.401,-2.522 1.359,-5.405 -1.18,1.476 -2.296,1.736 -3.16,0.874 -0.857,-0.857 -0.009,-2.43 1.048,-4.02 -0.833,1.042 -2.05,1.566 -2.362,0.48 -0.409,-1.421 3.037,-8.791 11.188,-20.81"
             style="fill:#f886bc;fill-opacity:1;fill-rule:nonzero;stroke:none"
             id="path894" /></g><g
           id="g896"
           transform="translate(616.2773,283.0688)"><path
             d="m 0,0 c 0,0 17.937,-0.752 23.316,-21.167 2.425,-9.204 3.987,-72.321 3.987,-72.321 l -65.543,0.439 c 0,0 0.873,57.06 2.339,69.415 2.678,22.578 20.457,23.986 20.457,23.986 0,0 0.809,-1.997 7.757,-1.997 C -0.739,-1.645 0,0 0,0"
             style="fill:#d8cac0;fill-opacity:1;fill-rule:nonzero;stroke:none"
             id="path898" /></g><g
           id="g900"
           transform="translate(616.2773,283.0688)"><path
             d="M 0,0 C 21.289,0 34.397,-29.244 34.397,-29.244 L 21.011,-35.966"
             style="fill:#d8cac0;fill-opacity:1;fill-rule:nonzero;stroke:none"
             id="path902" /></g><g
           id="g904"
           transform="translate(588.1543,241.5762)"><path
             d="m 0,0 c 0,0 -11.361,-16.348 -20.533,-17.235 -12.329,-1.193 -34.263,39.853 -34.263,39.853 l 13.835,9.345 18.95,-23.834 6.464,9.66"
             style="fill:#f886bc;fill-opacity:1;fill-rule:nonzero;stroke:none"
             id="path906" /></g><g
           id="g908"
           transform="translate(600.833,283.4209)"><path
             d="m 0,0 c -18.33,-1.008 -31.746,-28.313 -31.746,-28.313 l 21.463,-15.406 12.181,15.89"
             style="fill:#d8cac0;fill-opacity:1;fill-rule:nonzero;stroke:none"
             id="path910" /></g><g
           id="g912"
           transform="translate(589.7939,240.2441)"><path
             d="M 0,0 10.382,13.503"
             style="fill:none;stroke:#846a6a;stroke-width:0.75;stroke-linecap:butt;stroke-linejoin:miter;stroke-miterlimit:10;stroke-dasharray:none;stroke-opacity:1"
             id="path914" /></g><g
           id="g916"
           transform="translate(641.3955,249.165)"><path
             d="M 0,0 C -1.189,8.59 -4.107,15.92 -4.107,15.92"
             style="fill:none;stroke:#846a6a;stroke-width:0.75;stroke-linecap:butt;stroke-linejoin:miter;stroke-miterlimit:10;stroke-dasharray:none;stroke-opacity:1"
             id="path918" /></g><g
           id="g920"
           transform="translate(599.9082,302.0093)"><path
             d="M 0,0 C 0,0 -2.951,-1.418 -2.804,-1.959 -2.656,-2.5 -1.771,-3.81 -1.771,-3.81"
             style="fill:#f886bc;fill-opacity:1;fill-rule:nonzero;stroke:none"
             id="path922" /></g><g
           id="g924"
           transform="translate(576.5029,63.7607)"><path
             d="M 0,0 H 31.852"
             style="fill:none;stroke:#0b2e6b;stroke-width:0.75;stroke-linecap:butt;stroke-linejoin:miter;stroke-miterlimit:10;stroke-dasharray:none;stroke-opacity:1"
             id="path926" /></g><g
           id="g928"
           transform="translate(617.2402,63.4912)"><path
             d="M 0,0 H 30.979"
             style="fill:none;stroke:#0b2e6b;stroke-width:0.75;stroke-linecap:butt;stroke-linejoin:miter;stroke-miterlimit:10;stroke-dasharray:none;stroke-opacity:1"
             id="path930" /></g></g></g></g></svg>
